u2194_ 10 - 160.ufo
<glyph name="dollar" format="1">
  <advance width="1021"/>
  <unicode hex="0024"/>
  <outline>
    <contour>
      <point x="410" y="-161" type="line" smooth="yes"/>
      <point x="611" y="-161" type="line"/>
      <point x="632" y="-161" type="line"/>
      <point x="656" y="-159" type="line"/>
      <point x="679" y="-157" type="line"/>
      <point x="701" y="-154" type="line"/>
      <point x="723" y="-149" type="line"/>
      <point x="745" y="-143" type="line"/>
      <point x="766" y="-136" type="line"/>
      <point x="787" y="-128" type="line"/>
      <point x="807" y="-119" type="line"/>
      <point x="826" y="-108" type="line"/>
      <point x="844" y="-96" type="line"/>
      <point x="861" y="-82" type="line" smooth="yes"/>
      <point x="864" y="-80"/>
      <point x="868" y="-77"/>
      <point x="870" y="-75" type="curve" smooth="yes"/>
      <point x="877" y="-68" type="line"/>
      <point x="892" y="-53" type="line"/>
      <point x="905" y="-37" type="line"/>
      <point x="917" y="-20" type="line"/>
      <point x="927" y="-4" type="line"/>
      <point x="936" y="13" type="line"/>
      <point x="943" y="30" type="line"/>
      <point x="950" y="46" type="line"/>
      <point x="955" y="62" type="line"/>
      <point x="959" y="77" type="line"/>
      <point x="962" y="92" type="line"/>
      <point x="965" y="106" type="line"/>
      <point x="967" y="120" type="line"/>
      <point x="968" y="133" type="line"/>
      <point x="970" y="145" type="line"/>
      <point x="970" y="157" type="line"/>
      <point x="971" y="167" type="line"/>
      <point x="971" y="177" type="line"/>
      <point x="971" y="186" type="line"/>
      <point x="971" y="194" type="line"/>
      <point x="971" y="201" type="line"/>
      <point x="971" y="222" type="line"/>
      <point x="969" y="245" type="line"/>
      <point x="967" y="268" type="line"/>
      <point x="964" y="291" type="line"/>
      <point x="959" y="313" type="line"/>
      <point x="954" y="334" type="line"/>
      <point x="947" y="355" type="line"/>
      <point x="939" y="376" type="line"/>
      <point x="930" y="396" type="line"/>
      <point x="919" y="415" type="line"/>
      <point x="907" y="433" type="line"/>
      <point x="894" y="450" type="line" smooth="yes"/>
      <point x="892" y="453"/>
      <point x="889" y="456"/>
      <point x="886" y="459" type="curve"/>
      <point x="936" y="486"/>
      <point x="971" y="540"/>
      <point x="971" y="599" type="curve" smooth="yes"/>
      <point x="971" y="607" type="line"/>
      <point x="971" y="615" type="line"/>
      <point x="971" y="624" type="line"/>
      <point x="970" y="634" type="line"/>
      <point x="970" y="645" type="line"/>
      <point x="969" y="657" type="line"/>
      <point x="968" y="669" type="line"/>
      <point x="966" y="682" type="line"/>
      <point x="964" y="696" type="line"/>
      <point x="961" y="710" type="line"/>
      <point x="958" y="725" type="line"/>
      <point x="953" y="740" type="line"/>
      <point x="948" y="756" type="line"/>
      <point x="941" y="773" type="line"/>
      <point x="933" y="789" type="line"/>
      <point x="924" y="806" type="line"/>
      <point x="914" y="822" type="line"/>
      <point x="902" y="838" type="line"/>
      <point x="888" y="854" type="line"/>
      <point x="874" y="869" type="line"/>
      <point x="858" y="883" type="line"/>
      <point x="850" y="889" type="line" smooth="yes"/>
      <point x="847" y="891"/>
      <point x="843" y="894"/>
      <point x="840" y="896" type="curve" smooth="yes"/>
      <point x="822" y="907" type="line"/>
      <point x="803" y="918" type="line"/>
      <point x="783" y="927" type="line"/>
      <point x="763" y="935" type="line"/>
      <point x="742" y="942" type="line"/>
      <point x="721" y="947" type="line"/>
      <point x="699" y="952" type="line"/>
      <point x="676" y="955" type="line"/>
      <point x="653" y="957" type="line"/>
      <point x="630" y="959" type="line"/>
      <point x="612" y="959" type="line" smooth="yes"/>
      <point x="611" y="959"/>
      <point x="610" y="959"/>
      <point x="609" y="959" type="curve" smooth="yes"/>
      <point x="418" y="959" type="line"/>
      <point x="405" y="959" type="line"/>
      <point x="380" y="958" type="line"/>
      <point x="356" y="957" type="line"/>
      <point x="333" y="954" type="line"/>
      <point x="310" y="950" type="line"/>
      <point x="287" y="945" type="line"/>
      <point x="265" y="939" type="line"/>
      <point x="244" y="931" type="line"/>
      <point x="223" y="922" type="line"/>
      <point x="203" y="912" type="line"/>
      <point x="184" y="900" type="line"/>
      <point x="166" y="887" type="line"/>
      <point x="159" y="881" type="line" smooth="yes"/>
      <point x="156" y="879"/>
      <point x="152" y="876"/>
      <point x="149" y="873" type="curve" smooth="yes"/>
      <point x="134" y="858" type="line"/>
      <point x="120" y="843" type="line"/>
      <point x="108" y="826" type="line"/>
      <point x="97" y="810" type="line"/>
      <point x="88" y="793" type="line"/>
      <point x="80" y="777" type="line"/>
      <point x="73" y="760" type="line"/>
      <point x="68" y="745" type="line"/>
      <point x="63" y="729" type="line"/>
      <point x="60" y="714" type="line"/>
      <point x="57" y="700" type="line"/>
      <point x="55" y="687" type="line"/>
      <point x="53" y="674" type="line"/>
      <point x="52" y="662" type="line"/>
      <point x="51" y="650" type="line"/>
      <point x="50" y="639" type="line"/>
      <point x="50" y="629" type="line"/>
      <point x="50" y="620" type="line"/>
      <point x="50" y="612" type="line"/>
      <point x="50" y="605" type="line"/>
      <point x="50" y="594" type="line"/>
      <point x="51" y="569" type="line"/>
      <point x="52" y="545" type="line"/>
      <point x="55" y="522" type="line"/>
      <point x="59" y="499" type="line"/>
      <point x="64" y="477" type="line"/>
      <point x="70" y="455" type="line"/>
      <point x="78" y="433" type="line"/>
      <point x="86" y="412" type="line"/>
      <point x="97" y="392" type="line"/>
      <point x="108" y="373" type="line"/>
      <point x="121" y="355" type="line"/>
      <point x="127" y="348" type="line" smooth="yes"/>
      <point x="129" y="345"/>
      <point x="132" y="342"/>
      <point x="135" y="339" type="curve"/>
      <point x="84" y="311"/>
      <point x="49" y="256"/>
      <point x="50" y="196" type="curve" smooth="yes"/>
      <point x="50" y="178" type="line"/>
      <point x="52" y="155" type="line"/>
      <point x="54" y="132" type="line"/>
      <point x="57" y="109" type="line"/>
      <point x="62" y="87" type="line"/>
      <point x="67" y="66" type="line"/>
      <point x="74" y="45" type="line"/>
      <point x="82" y="25" type="line"/>
      <point x="91" y="5" type="line"/>
      <point x="102" y="-14" type="line"/>
      <point x="114" y="-32" type="line"/>
      <point x="127" y="-50" type="line"/>
      <point x="141" y="-66" type="line"/>
      <point x="156" y="-80" type="line" smooth="yes"/>
      <point x="158" y="-83"/>
      <point x="162" y="-86"/>
      <point x="165" y="-88" type="curve" smooth="yes"/>
      <point x="172" y="-94" type="line"/>
      <point x="188" y="-106" type="line"/>
      <point x="205" y="-116" type="line"/>
      <point x="221" y="-125" type="line"/>
      <point x="238" y="-133" type="line"/>
      <point x="254" y="-139" type="line"/>
      <point x="270" y="-144" type="line"/>
      <point x="285" y="-149" type="line"/>
      <point x="300" y="-152" type="line"/>
      <point x="315" y="-155" type="line"/>
      <point x="328" y="-157" type="line"/>
      <point x="341" y="-158" type="line"/>
      <point x="353" y="-159" type="line"/>
      <point x="365" y="-160" type="line"/>
      <point x="376" y="-161" type="line"/>
      <point x="386" y="-161" type="line"/>
      <point x="395" y="-161" type="line"/>
      <point x="403" y="-161" type="line"/>
    </contour>
  </outline>
</glyph>
<glyph name="percent" format="1">
  <advance width="1020"/>
  <unicode hex="0025"/>
  <outline>
    <contour>
      <point x="613" y="-161" type="curve" smooth="yes"/>
      <point x="631" y="-161" type="line"/>
      <point x="654" y="-159" type="line"/>
      <point x="677" y="-157" type="line"/>
      <point x="700" y="-154" type="line"/>
      <point x="722" y="-149" type="line"/>
      <point x="743" y="-144" type="line"/>
      <point x="764" y="-137" type="line"/>
      <point x="785" y="-129" type="line"/>
      <point x="805" y="-120" type="line"/>
      <point x="824" y="-109" type="line"/>
      <point x="842" y="-97" type="line"/>
      <point x="859" y="-84" type="line"/>
      <point x="875" y="-70" type="line"/>
      <point x="890" y="-55" type="line"/>
      <point x="903" y="-39" type="line" smooth="yes"/>
      <point x="905" y="-37"/>
      <point x="908" y="-33"/>
      <point x="910" y="-30" type="curve" smooth="yes"/>
      <point x="915" y="-23" type="line"/>
      <point x="925" y="-6" type="line"/>
      <point x="934" y="11" type="line"/>
      <point x="942" y="27" type="line"/>
      <point x="948" y="43" type="line"/>
      <point x="954" y="59" type="line"/>
      <point x="958" y="75" type="line"/>
      <point x="962" y="90" type="line"/>
      <point x="964" y="104" type="line"/>
      <point x="966" y="118" type="line"/>
      <point x="968" y="131" type="line"/>
      <point x="969" y="143" type="line"/>
      <point x="970" y="155" type="line"/>
      <point x="970" y="166" type="line"/>
      <point x="970" y="176" type="line"/>
      <point x="970" y="185" type="line"/>
      <point x="970" y="194" type="line"/>
      <point x="970" y="201" type="line" smooth="yes"/>
      <point x="969" y="288"/>
      <point x="897" y="359"/>
      <point x="810" y="359" type="curve" smooth="yes"/>
      <point x="680" y="359" type="line"/>
      <point x="938" y="703" type="line" smooth="yes"/>
      <point x="990" y="772"/>
      <point x="975" y="875"/>
      <point x="906" y="927" type="curve" smooth="yes"/>
      <point x="837" y="979"/>
      <point x="734" y="964"/>
      <point x="682" y="895" type="curve" smooth="yes"/>
      <point x="570" y="746" type="line"/>
      <point x="570" y="789" type="line" smooth="yes"/>
      <point x="570" y="791"/>
      <point x="570" y="793"/>
      <point x="570" y="794" type="curve"/>
      <point x="570" y="796"/>
      <point x="570" y="799"/>
      <point x="570" y="802" type="curve" smooth="yes"/>
      <point x="568" y="889"/>
      <point x="493" y="961"/>
      <point x="407" y="959" type="curve" smooth="yes"/>
      <point x="389" y="959" type="line"/>
      <point x="366" y="957" type="line"/>
      <point x="343" y="955" type="line"/>
      <point x="320" y="952" type="line"/>
      <point x="298" y="947" type="line"/>
      <point x="277" y="942" type="line"/>
      <point x="256" y="935" type="line"/>
      <point x="235" y="927" type="line"/>
      <point x="215" y="918" type="line"/>
      <point x="196" y="907" type="line"/>
      <point x="178" y="895" type="line"/>
      <point x="161" y="882" type="line"/>
      <point x="145" y="868" type="line"/>
      <point x="130" y="853" type="line"/>
      <point x="117" y="837" type="line" smooth="yes"/>
      <point x="115" y="835"/>
      <point x="112" y="831"/>
      <point x="110" y="828" type="curve" smooth="yes"/>
      <point x="105" y="821" type="line"/>
      <point x="95" y="804" type="line"/>
      <point x="86" y="787" type="line"/>
      <point x="78" y="771" type="line"/>
      <point x="72" y="755" type="line"/>
      <point x="66" y="739" type="line"/>
      <point x="62" y="723" type="line"/>
      <point x="58" y="708" type="line"/>
      <point x="56" y="694" type="line"/>
      <point x="54" y="680" type="line"/>
      <point x="52" y="667" type="line"/>
      <point x="51" y="655" type="line"/>
      <point x="50" y="643" type="line"/>
      <point x="50" y="632" type="line"/>
      <point x="50" y="622" type="line"/>
      <point x="50" y="613" type="line"/>
      <point x="50" y="604" type="line"/>
      <point x="50" y="597" type="line" smooth="yes"/>
      <point x="51" y="510"/>
      <point x="123" y="439"/>
      <point x="210" y="439" type="curve" smooth="yes"/>
      <point x="340" y="439" type="line"/>
      <point x="82" y="95" type="line" smooth="yes"/>
      <point x="30" y="26"/>
      <point x="45" y="-77"/>
      <point x="114" y="-129" type="curve" smooth="yes"/>
      <point x="183" y="-181"/>
      <point x="286" y="-166"/>
      <point x="338" y="-97" type="curve" smooth="yes"/>
      <point x="450" y="52" type="line"/>
      <point x="450" y="9" type="line" smooth="yes"/>
      <point x="450" y="7"/>
      <point x="450" y="5"/>
      <point x="450" y="4" type="curve"/>
      <point x="450" y="2"/>
      <point x="450" y="-1"/>
      <point x="450" y="-4" type="curve" smooth="yes"/>
      <point x="452" y="-91"/>
      <point x="527" y="-163"/>
    </contour>
  </outline>
</glyph>
<glyph name="ampersand" format="1">
  <advance width="1019"/>
  <unicode hex="0026"/>
  <outline>
    <contour>
      <point x="370" y="186" type="line"/>
      <point x="370" y="192" type="line"/>
      <point x="370" y="196" type="line"/>
      <point x="370" y="207" type="line"/>
      <point x="370" y="217" type="line"/>
      <point x="371" y="225" type="line"/>
      <point x="372" y="231" type="line"/>
      <point x="373" y="236" type="line"/>
      <point x="373" y="240" type="line"/>
      <point x="373" y="240" type="line"/>
      <point x="377" y="240" type="line"/>
      <point x="382" y="240" type="line"/>
      <point x="386" y="241" type="line"/>
      <point x="392" y="241" type="line"/>
      <point x="397" y="241" type="line"/>
      <point x="404" y="241" type="line"/>
      <point x="425" y="241" type="line"/>
      <point x="370" y="186" type="line"/>
    </contour>
    <contour>
      <point x="361" y="236" type="line"/>
      <point x="360" y="236" type="line"/>
      <point x="361" y="237" type="line"/>
      <point x="361" y="237" type="line"/>
      <point x="362" y="238" type="line"/>
      <point x="364" y="238" type="line"/>
      <point x="367" y="239" type="line"/>
      <point x="365" y="238" type="line"/>
      <point x="363" y="237" type="line"/>
      <point x="362" y="237" type="line"/>
    </contour>
    <contour>
      <point x="525" y="-112" type="curve" smooth="yes"/>
      <point x="622" y="-15" type="line"/>
      <point x="682" y="-95" type="line" smooth="yes"/>
      <point x="734" y="-164"/>
      <point x="837" y="-179"/>
      <point x="906" y="-127" type="curve" smooth="yes"/>
      <point x="975" y="-75"/>
      <point x="990" y="28"/>
      <point x="938" y="97" type="curve" smooth="yes"/>
      <point x="850" y="214" type="line"/>
      <point x="915" y="280" type="line"/>
      <point x="922" y="287" type="line" smooth="yes"/>
      <point x="983" y="348"/>
      <point x="983" y="452"/>
      <point x="922" y="513" type="curve" smooth="yes"/>
      <point x="906" y="529"/>
      <point x="887" y="541"/>
      <point x="867" y="548" type="curve"/>
      <point x="868" y="559" type="line"/>
      <point x="870" y="582" type="line"/>
      <point x="870" y="603" type="line"/>
      <point x="870" y="801" type="line" smooth="yes"/>
      <point x="870" y="889"/>
      <point x="798" y="961"/>
      <point x="710" y="961" type="curve" smooth="yes"/>
      <point x="609" y="961" type="line"/>
      <point x="601" y="961" type="line"/>
      <point x="593" y="961" type="line"/>
      <point x="584" y="961" type="line"/>
      <point x="574" y="960" type="line"/>
      <point x="563" y="960" type="line"/>
      <point x="551" y="959" type="line"/>
      <point x="539" y="958" type="line"/>
      <point x="526" y="956" type="line"/>
      <point x="512" y="954" type="line"/>
      <point x="498" y="951" type="line"/>
      <point x="483" y="948" type="line"/>
      <point x="468" y="943" type="line"/>
      <point x="452" y="938" type="line"/>
      <point x="435" y="931" type="line"/>
      <point x="419" y="923" type="line"/>
      <point x="402" y="914" type="line"/>
      <point x="386" y="904" type="line"/>
      <point x="370" y="892" type="line"/>
      <point x="354" y="878" type="line"/>
      <point x="339" y="864" type="line"/>
      <point x="325" y="848" type="line"/>
      <point x="319" y="840" type="line" smooth="yes"/>
      <point x="317" y="837"/>
      <point x="314" y="833"/>
      <point x="312" y="830" type="curve" smooth="yes"/>
      <point x="301" y="812" type="line"/>
      <point x="290" y="793" type="line"/>
      <point x="281" y="773" type="line"/>
      <point x="273" y="753" type="line"/>
      <point x="266" y="732" type="line"/>
      <point x="261" y="711" type="line"/>
      <point x="256" y="689" type="line"/>
      <point x="253" y="666" type="line"/>
      <point x="251" y="643" type="line"/>
      <point x="249" y="620" type="line"/>
      <point x="249" y="599" type="line"/>
      <point x="249" y="536" type="line"/>
      <point x="245" y="535" type="line"/>
      <point x="229" y="528" type="line"/>
      <point x="212" y="519" type="line"/>
      <point x="196" y="510" type="line"/>
      <point x="180" y="499" type="line"/>
      <point x="164" y="486" type="line"/>
      <point x="148" y="472" type="line"/>
      <point x="134" y="457" type="line"/>
      <point x="120" y="440" type="line" smooth="yes"/>
      <point x="118" y="437"/>
      <point x="115" y="433"/>
      <point x="113" y="430" type="curve" smooth="yes"/>
      <point x="108" y="422" type="line"/>
      <point x="96" y="403" type="line"/>
      <point x="86" y="383" type="line"/>
      <point x="77" y="362" type="line"/>
      <point x="70" y="341" type="line"/>
      <point x="64" y="319" type="line"/>
      <point x="59" y="297" type="line"/>
      <point x="55" y="274" type="line"/>
      <point x="52" y="251" type="line"/>
      <point x="51" y="227" type="line"/>
      <point x="50" y="202" type="line"/>
      <point x="50" y="192" type="line"/>
      <point x="50" y="184" type="line"/>
      <point x="50" y="176" type="line"/>
      <point x="50" y="166" type="line"/>
      <point x="51" y="156" type="line"/>
      <point x="52" y="145" type="line"/>
      <point x="53" y="133" type="line"/>
      <point x="54" y="121" type="line"/>
      <point x="56" y="108" type="line"/>
      <point x="58" y="94" type="line"/>
      <point x="62" y="79" type="line"/>
      <point x="66" y="65" type="line"/>
      <point x="71" y="49" type="line"/>
      <point x="77" y="33" type="line"/>
      <point x="84" y="17" type="line"/>
      <point x="92" y="1" type="line"/>
      <point x="102" y="-15" type="line"/>
      <point x="113" y="-32" type="line"/>
      <point x="126" y="-47" type="line" smooth="yes"/>
      <point x="128" y="-50"/>
      <point x="131" y="-54"/>
      <point x="134" y="-56" type="curve" smooth="yes"/>
      <point x="140" y="-63" type="line"/>
      <point x="155" y="-77" type="line"/>
      <point x="172" y="-91" type="line"/>
      <point x="190" y="-103" type="line"/>
      <point x="209" y="-114" type="line"/>
      <point x="229" y="-124" type="line"/>
      <point x="250" y="-132" type="line"/>
      <point x="271" y="-140" type="line"/>
      <point x="293" y="-146" type="line"/>
      <point x="315" y="-150" type="line"/>
      <point x="338" y="-154" type="line"/>
      <point x="361" y="-157" type="line"/>
      <point x="385" y="-158" type="line"/>
      <point x="409" y="-159" type="line" smooth="yes"/>
      <point x="447" y="-160"/>
      <point x="499" y="-139"/>
    </contour>
  </outline>
</glyph>
<glyph name="asterisk" format="1">
  <advance width="820"/>
  <unicode hex="002A"/>
  <outline>
    <contour>
      <point x="401" y="210" type="curve" smooth="yes"/>
      <point x="414" y="229" type="line"/>
      <point x="432" y="206" type="line" smooth="yes"/>
      <point x="484" y="137"/>
      <point x="587" y="122"/>
      <point x="656" y="174" type="curve" smooth="yes"/>
      <point x="717" y="220"/>
      <point x="736" y="306"/>
      <point x="703" y="373" type="curve"/>
      <point x="743" y="403"/>
      <point x="770" y="450"/>
      <point x="770" y="502" type="curve" smooth="yes"/>
      <point x="770" y="588"/>
      <point x="696" y="662"/>
      <point x="610" y="662" type="curve" smooth="yes"/>
      <point x="570" y="662" type="line"/>
      <point x="570" y="702" type="line" smooth="yes"/>
      <point x="570" y="788"/>
      <point x="496" y="862"/>
      <point x="410" y="862" type="curve" smooth="yes"/>
      <point x="324" y="862"/>
      <point x="250" y="788"/>
      <point x="250" y="702" type="curve" smooth="yes"/>
      <point x="250" y="662" type="line"/>
      <point x="210" y="662" type="line" smooth="yes"/>
      <point x="124" y="662"/>
      <point x="50" y="588"/>
      <point x="50" y="502" type="curve" smooth="yes"/>
      <point x="50" y="447"/>
      <point x="80" y="397"/>
      <point x="124" y="368" type="curve"/>
      <point x="94" y="300"/>
      <point x="116" y="215"/>
      <point x="178" y="171" type="curve" smooth="yes"/>
      <point x="249" y="121"/>
      <point x="352" y="139"/>
    </contour>
  </outline>
</glyph>
<glyph name="comma" format="1">
  <advance width="520"/>
  <unicode hex="002C"/>
  <outline>
    <contour>
      <point x="210" y="-218" type="curve" smooth="yes"/>
      <point x="310" y="-218" type="line" smooth="yes"/>
      <point x="398" y="-218"/>
      <point x="470" y="-146"/>
      <point x="470" y="-58" type="curve" smooth="yes"/>
      <point x="470" y="142" type="line" smooth="yes"/>
      <point x="470" y="228"/>
      <point x="396" y="302"/>
      <point x="310" y="302" type="curve" smooth="yes"/>
      <point x="224" y="302"/>
      <point x="150" y="228"/>
      <point x="150" y="142" type="curve" smooth="yes"/>
      <point x="150" y="90" type="line"/>
      <point x="92" y="65"/>
      <point x="50" y="7"/>
      <point x="50" y="-58" type="curve" smooth="yes"/>
      <point x="50" y="-144"/>
      <point x="124" y="-218"/>
    </contour>
  </outline>
</glyph>
<glyph name="zero" format="1">
  <advance width="1020"/>
  <unicode hex="0030"/>
  <outline>
    <contour>
      <point x="410" y="-158" type="curve" smooth="yes"/>
      <point x="612" y="-158" type="line"/>
      <point x="633" y="-158" type="line"/>
      <point x="656" y="-156" type="line"/>
      <point x="679" y="-154" type="line"/>
      <point x="702" y="-151" type="line"/>
      <point x="724" y="-146" type="line"/>
      <point x="745" y="-141" type="line"/>
      <point x="766" y="-134" type="line"/>
      <point x="787" y="-126" type="line"/>
      <point x="807" y="-117" type="line"/>
      <point x="826" y="-106" type="line"/>
      <point x="844" y="-94" type="line"/>
      <point x="861" y="-81" type="line" smooth="yes"/>
      <point x="864" y="-79"/>
      <point x="868" y="-75"/>
      <point x="870" y="-73" type="curve" smooth="yes"/>
      <point x="877" y="-66" type="line"/>
      <point x="892" y="-51" type="line"/>
      <point x="905" y="-35" type="line"/>
      <point x="917" y="-19" type="line"/>
      <point x="927" y="-2" type="line"/>
      <point x="936" y="15" type="line"/>
      <point x="944" y="32" type="line"/>
      <point x="950" y="48" type="line"/>
      <point x="955" y="64" type="line"/>
      <point x="959" y="79" type="line"/>
      <point x="962" y="94" type="line"/>
      <point x="965" y="108" type="line"/>
      <point x="966" y="122" type="line"/>
      <point x="968" y="135" type="line"/>
      <point x="969" y="147" type="line"/>
      <point x="969" y="158" type="line"/>
      <point x="970" y="169" type="line"/>
      <point x="970" y="179" type="line"/>
      <point x="970" y="188" type="line"/>
      <point x="970" y="195" type="line"/>
      <point x="970" y="202" type="line"/>
      <point x="970" y="212" type="line"/>
      <point x="970" y="602" type="line"/>
      <point x="969" y="618" type="line"/>
      <point x="968" y="636" type="line"/>
      <point x="967" y="647" type="line"/>
      <point x="965" y="658" type="line"/>
      <point x="963" y="669" type="line"/>
      <point x="960" y="682" type="line"/>
      <point x="957" y="695" type="line"/>
      <point x="953" y="709" type="line"/>
      <point x="949" y="724" type="line"/>
      <point x="943" y="739" type="line"/>
      <point x="937" y="754" type="line"/>
      <point x="929" y="771" type="line"/>
      <point x="921" y="787" type="line"/>
      <point x="911" y="804" type="line"/>
      <point x="899" y="821" type="line"/>
      <point x="886" y="838" type="line"/>
      <point x="872" y="854" type="line"/>
      <point x="856" y="871" type="line" smooth="yes"/>
      <point x="853" y="873"/>
      <point x="849" y="876"/>
      <point x="847" y="878" type="curve" smooth="yes"/>
      <point x="838" y="886" type="line"/>
      <point x="818" y="901" type="line"/>
      <point x="797" y="914" type="line" smooth="yes"/>
      <point x="794" y="916"/>
      <point x="789" y="919"/>
      <point x="786" y="920" type="curve" smooth="yes"/>
      <point x="774" y="926" type="line"/>
      <point x="749" y="937" type="line" smooth="yes"/>
      <point x="746" y="938"/>
      <point x="741" y="940"/>
      <point x="738" y="941" type="curve" smooth="yes"/>
      <point x="724" y="946" type="line"/>
      <point x="697" y="953" type="line"/>
      <point x="670" y="958" type="line"/>
      <point x="642" y="961" type="line"/>
      <point x="613" y="962" type="line"/>
      <point x="598" y="962" type="line"/>
      <point x="408" y="962" type="line"/>
      <point x="387" y="962" type="line"/>
      <point x="363" y="960" type="line"/>
      <point x="341" y="958" type="line"/>
      <point x="318" y="955" type="line"/>
      <point x="296" y="950" type="line"/>
      <point x="275" y="945" type="line"/>
      <point x="254" y="938" type="line"/>
      <point x="233" y="930" type="line"/>
      <point x="213" y="920" type="line"/>
      <point x="194" y="910" type="line"/>
      <point x="176" y="897" type="line"/>
      <point x="159" y="884" type="line" smooth="yes"/>
      <point x="156" y="882"/>
      <point x="152" y="879"/>
      <point x="149" y="876" type="curve" smooth="yes"/>
      <point x="143" y="870" type="line"/>
      <point x="128" y="855" type="line"/>
      <point x="115" y="839" type="line"/>
      <point x="103" y="822" type="line"/>
      <point x="93" y="805" type="line"/>
      <point x="84" y="788" type="line"/>
      <point x="76" y="772" type="line"/>
      <point x="70" y="755" type="line"/>
      <point x="65" y="740" type="line"/>
      <point x="61" y="724" type="line"/>
      <point x="58" y="709" type="line"/>
      <point x="55" y="695" type="line"/>
      <point x="54" y="682" type="line"/>
      <point x="52" y="669" type="line"/>
      <point x="51" y="657" type="line"/>
      <point x="51" y="645" type="line"/>
      <point x="50" y="635" type="line"/>
      <point x="50" y="625" type="line"/>
      <point x="50" y="616" type="line"/>
      <point x="50" y="609" type="line"/>
      <point x="50" y="602" type="line"/>
      <point x="50" y="592" type="line"/>
      <point x="50" y="202" type="line"/>
      <point x="50" y="195" type="line"/>
      <point x="50" y="188" type="line"/>
      <point x="50" y="179" type="line"/>
      <point x="50" y="169" type="line"/>
      <point x="51" y="159" type="line"/>
      <point x="52" y="148" type="line"/>
      <point x="53" y="136" type="line"/>
      <point x="54" y="124" type="line"/>
      <point x="56" y="111" type="line"/>
      <point x="58" y="97" type="line"/>
      <point x="62" y="83" type="line"/>
      <point x="66" y="68" type="line"/>
      <point x="70" y="52" type="line"/>
      <point x="76" y="37" type="line"/>
      <point x="83" y="21" type="line"/>
      <point x="92" y="4" type="line"/>
      <point x="101" y="-12" type="line"/>
      <point x="112" y="-28" type="line"/>
      <point x="125" y="-44" type="line"/>
      <point x="139" y="-60" type="line"/>
      <point x="154" y="-74" type="line"/>
      <point x="171" y="-88" type="line" smooth="yes"/>
      <point x="174" y="-90"/>
      <point x="178" y="-93"/>
      <point x="181" y="-95" type="curve" smooth="yes"/>
      <point x="189" y="-100" type="line"/>
      <point x="208" y="-112" type="line"/>
      <point x="228" y="-122" type="line"/>
      <point x="249" y="-131" type="line"/>
      <point x="270" y="-138" type="line"/>
      <point x="292" y="-144" type="line"/>
      <point x="314" y="-149" type="line"/>
      <point x="337" y="-153" type="line"/>
      <point x="360" y="-156" type="line"/>
      <point x="384" y="-157" type="line"/>
      <point x="403" y="-158" type="line"/>
      <point x="405" y="-158"/>
      <point x="408" y="-158"/>
    </contour>
    <contour>
      <point x="370" y="592" type="line"/>
      <point x="370" y="602" type="line"/>
      <point x="370" y="609" type="line"/>
      <point x="370" y="614" type="line"/>
      <point x="370" y="620" type="line"/>
      <point x="370" y="625" type="line"/>
      <point x="370" y="629" type="line"/>
      <point x="370" y="633" type="line"/>
      <point x="371" y="637" type="line"/>
      <point x="371" y="639" type="line"/>
      <point x="375" y="640" type="line"/>
      <point x="383" y="641" type="line"/>
      <point x="393" y="642" type="line"/>
      <point x="408" y="642" type="line"/>
      <point x="493" y="642" type="line"/>
      <point x="370" y="479" type="line"/>
    </contour>
    <contour>
      <point x="361" y="636" type="line"/>
      <point x="362" y="637" type="line"/>
      <point x="362" y="637" type="line"/>
    </contour>
    <contour>
      <point x="355" y="633" type="line"/>
      <point x="355" y="634" type="line"/>
      <point x="356" y="635" type="line"/>
      <point x="359" y="636" type="line"/>
      <point x="361" y="637" type="line"/>
      <point x="359" y="635" type="line"/>
      <point x="357" y="634" type="line"/>
      <point x="356" y="633" type="line"/>
    </contour>
    <contour>
      <point x="650" y="212" type="line"/>
      <point x="650" y="202" type="line"/>
      <point x="650" y="195" type="line"/>
      <point x="650" y="189" type="line"/>
      <point x="650" y="184" type="line"/>
      <point x="650" y="179" type="line"/>
      <point x="650" y="174" type="line"/>
      <point x="650" y="170" type="line"/>
      <point x="649" y="167" type="line"/>
      <point x="649" y="165" type="line"/>
      <point x="645" y="164" type="line"/>
      <point x="637" y="163" type="line"/>
      <point x="627" y="162" type="line"/>
      <point x="612" y="162" type="line"/>
      <point x="531" y="162" type="line"/>
      <point x="650" y="319" type="line"/>
    </contour>
    <contour>
      <point x="661" y="169" type="line"/>
      <point x="663" y="170" type="line"/>
      <point x="665" y="171" type="line"/>
      <point x="665" y="171" type="line"/>
      <point x="665" y="170" type="line"/>
      <point x="664" y="169" type="line"/>
      <point x="662" y="168" type="line"/>
      <point x="659" y="167" type="line"/>
    </contour>
    <contour>
      <point x="659" y="168" type="line"/>
      <point x="658" y="167" type="line"/>
      <point x="658" y="167" type="line"/>
    </contour>
  </outline>
</glyph>
<glyph name="one" format="1">
  <advance width="1020"/>
  <unicode hex="0031"/>
  <outline>
    <contour>
      <point x="341" y="747" type="line"/>
      <point x="341" y="748" type="line"/>
      <point x="342" y="749" type="line"/>
      <point x="342" y="751" type="line"/>
      <point x="344" y="753" type="line"/>
      <point x="345" y="755" type="line"/>
      <point x="344" y="752" type="line"/>
      <point x="343" y="749" type="line"/>
      <point x="342" y="748" type="line"/>
    </contour>
    <contour>
      <point x="356" y="164" type="line"/>
      <point x="358" y="165" type="line"/>
      <point x="359" y="165" type="line"/>
      <point x="360" y="165" type="line"/>
      <point x="361" y="165" type="line"/>
      <point x="361" y="165" type="line"/>
      <point x="360" y="165" type="line"/>
      <point x="359" y="164" type="line"/>
      <point x="357" y="164" type="line"/>
      <point x="355" y="163" type="line"/>
    </contour>
    <contour>
      <point x="210" y="-159" type="curve" smooth="yes"/>
      <point x="810" y="-159" type="line" smooth="yes"/>
      <point x="896" y="-159"/>
      <point x="970" y="-85"/>
      <point x="970" y="1" type="curve" smooth="yes"/>
      <point x="970" y="87"/>
      <point x="896" y="161"/>
      <point x="810" y="161" type="curve" smooth="yes"/>
      <point x="669" y="161" type="line"/>
      <point x="669" y="173" type="line"/>
      <point x="670" y="198" type="line"/>
      <point x="670" y="211" type="line"/>
      <point x="670" y="791" type="line" smooth="yes"/>
      <point x="670" y="1000"/>
      <point x="360" y="1007"/>
      <point x="350" y="798" type="curve" smooth="yes"/>
      <point x="350" y="790" type="line"/>
      <point x="349" y="776" type="line"/>
      <point x="348" y="768" type="line"/>
      <point x="347" y="762" type="line"/>
      <point x="347" y="762" type="line"/>
      <point x="344" y="762" type="line"/>
      <point x="340" y="761" type="line"/>
      <point x="336" y="761" type="line"/>
      <point x="332" y="761" type="line"/>
      <point x="327" y="761" type="line"/>
      <point x="322" y="761" type="line"/>
      <point x="316" y="761" type="line"/>
      <point x="220" y="761" type="line"/>
      <point x="210" y="761" type="line" smooth="yes"/>
      <point x="124" y="761"/>
      <point x="50" y="687"/>
      <point x="50" y="601" type="curve" smooth="yes"/>
      <point x="50" y="515"/>
      <point x="124" y="441"/>
      <point x="210" y="441" type="curve" smooth="yes"/>
      <point x="317" y="441" type="line"/>
      <point x="325" y="441" type="line"/>
      <point x="334" y="441" type="line"/>
      <point x="344" y="441" type="line"/>
      <point x="350" y="442" type="line"/>
      <point x="350" y="211" type="line"/>
      <point x="350" y="204" type="line"/>
      <point x="350" y="193" type="line"/>
      <point x="350" y="184" type="line"/>
      <point x="349" y="176" type="line"/>
      <point x="348" y="169" type="line"/>
      <point x="347" y="164" type="line"/>
      <point x="347" y="162" type="line"/>
      <point x="344" y="162" type="line"/>
      <point x="339" y="161" type="line"/>
      <point x="334" y="161" type="line"/>
      <point x="329" y="161" type="line"/>
      <point x="323" y="161" type="line"/>
      <point x="317" y="161" type="line"/>
      <point x="310" y="161" type="line" smooth="yes"/>
      <point x="210" y="161" type="line" smooth="yes"/>
      <point x="124" y="161"/>
      <point x="50" y="87"/>
      <point x="50" y="1" type="curve" smooth="yes"/>
      <point x="50" y="-85"/>
      <point x="124" y="-159"/>
    </contour>
  </outline>
</glyph>
<glyph name="two" format="1">
  <advance width="1020"/>
  <unicode hex="0032"/>
  <outline>
    <contour>
      <point x="370" y="597" type="curve" smooth="yes"/>
      <point x="370" y="608" type="line"/>
      <point x="370" y="617" type="line"/>
      <point x="371" y="625" type="line"/>
      <point x="372" y="632" type="line"/>
      <point x="373" y="637" type="line"/>
      <point x="373" y="639" type="line"/>
      <point x="376" y="639" type="line"/>
      <point x="381" y="640" type="line"/>
      <point x="386" y="640" type="line"/>
      <point x="391" y="640" type="line"/>
      <point x="397" y="640" type="line"/>
      <point x="403" y="640" type="line"/>
      <point x="600" y="640" type="line"/>
      <point x="605" y="640" type="line"/>
      <point x="613" y="640" type="line"/>
      <point x="619" y="640" type="line"/>
      <point x="624" y="640" type="line"/>
      <point x="627" y="639" type="line"/>
      <point x="636" y="636" type="line"/>
      <point x="638" y="635" type="line"/>
      <point x="640" y="634" type="line"/>
      <point x="641" y="633" type="line"/>
      <point x="642" y="630" type="line"/>
      <point x="643" y="627" type="line"/>
      <point x="645" y="624" type="line"/>
      <point x="646" y="621" type="line"/>
      <point x="647" y="618" type="line"/>
      <point x="648" y="614" type="line"/>
      <point x="648" y="611" type="line"/>
      <point x="649" y="608" type="line"/>
      <point x="649" y="606" type="line"/>
      <point x="649" y="605" type="line"/>
      <point x="650" y="603" type="line"/>
      <point x="650" y="603" type="line"/>
      <point x="650" y="592" type="line"/>
      <point x="650" y="583" type="line"/>
      <point x="649" y="575" type="line"/>
      <point x="648" y="568" type="line"/>
      <point x="647" y="563" type="line"/>
      <point x="647" y="561" type="line"/>
      <point x="644" y="561" type="line"/>
      <point x="639" y="560" type="line"/>
      <point x="634" y="560" type="line"/>
      <point x="629" y="560" type="line"/>
      <point x="623" y="560" type="line"/>
      <point x="617" y="560" type="line"/>
      <point x="403" y="560" type="line"/>
      <point x="395" y="560" type="line"/>
      <point x="386" y="560" type="line"/>
      <point x="376" y="560" type="line"/>
      <point x="365" y="559" type="line"/>
      <point x="364" y="559" type="line"/>
      <point x="368" y="571"/>
      <point x="370" y="584"/>
    </contour>
    <contour>
      <point x="634" y="639" type="line"/>
      <point x="634" y="639" type="line"/>
      <point x="635" y="639" type="line"/>
      <point x="636" y="638" type="line"/>
      <point x="637" y="638" type="line"/>
      <point x="638" y="636" type="line"/>
      <point x="639" y="636" type="line"/>
      <point x="637" y="636" type="line"/>
    </contour>
    <contour>
      <point x="632" y="639" type="line"/>
      <point x="633" y="639" type="line"/>
      <point x="636" y="637" type="line"/>
    </contour>
    <contour>
      <point x="630" y="639" type="line"/>
      <point x="631" y="639" type="line"/>
      <point x="634" y="637" type="line"/>
    </contour>
    <contour>
      <point x="360" y="636" type="line"/>
      <point x="359" y="636" type="line"/>
      <point x="359" y="636" type="line"/>
      <point x="360" y="636" type="line"/>
      <point x="361" y="637" type="line"/>
      <point x="363" y="637" type="line"/>
      <point x="365" y="638" type="line"/>
      <point x="364" y="637" type="line"/>
      <point x="362" y="636" type="line"/>
      <point x="361" y="636" type="line"/>
    </contour>
    <contour>
      <point x="639" y="635" type="line"/>
      <point x="639" y="635" type="line"/>
      <point x="638" y="636" type="line"/>
      <point x="638" y="636" type="line"/>
    </contour>
    <contour>
      <point x="639" y="635" type="line"/>
      <point x="639" y="634" type="line"/>
      <point x="639" y="635" type="line"/>
      <point x="639" y="635" type="line"/>
    </contour>
    <contour>
      <point x="656" y="563" type="line"/>
      <point x="658" y="564" type="line"/>
      <point x="659" y="564" type="line"/>
      <point x="660" y="564" type="line"/>
      <point x="661" y="564" type="line"/>
      <point x="661" y="564" type="line"/>
      <point x="660" y="564" type="line"/>
      <point x="659" y="563" type="line"/>
      <point x="657" y="563" type="line"/>
      <point x="655" y="562" type="line"/>
    </contour>
    <contour>
      <point x="376" y="249" type="line"/>
      <point x="377" y="252" type="line"/>
      <point x="378" y="253" type="line"/>
      <point x="379" y="254" type="line"/>
      <point x="379" y="253" type="line"/>
      <point x="378" y="252" type="line"/>
      <point x="378" y="250" type="line"/>
      <point x="376" y="248" type="line"/>
      <point x="375" y="246" type="line"/>
    </contour>
    <contour>
      <point x="810" y="-160" type="line" smooth="yes"/>
      <point x="896" y="-160"/>
      <point x="970" y="-86"/>
      <point x="970" y="0" type="curve" smooth="yes"/>
      <point x="970" y="86"/>
      <point x="896" y="160"/>
      <point x="810" y="160" type="curve" smooth="yes"/>
      <point x="370" y="160" type="line"/>
      <point x="370" y="200" type="line"/>
      <point x="370" y="215" type="line"/>
      <point x="371" y="225" type="line"/>
      <point x="372" y="233" type="line"/>
      <point x="373" y="239" type="line"/>
      <point x="373" y="239" type="line"/>
      <point x="376" y="239" type="line"/>
      <point x="380" y="240" type="line"/>
      <point x="384" y="240" type="line"/>
      <point x="388" y="240" type="line"/>
      <point x="393" y="240" type="line"/>
      <point x="398" y="240" type="line"/>
      <point x="404" y="240" type="line"/>
      <point x="617" y="240" type="line"/>
      <point x="624" y="240" type="line"/>
      <point x="632" y="240" type="line"/>
      <point x="642" y="240" type="line"/>
      <point x="652" y="241" type="line"/>
      <point x="663" y="241" type="line"/>
      <point x="675" y="242" type="line"/>
      <point x="687" y="244" type="line"/>
      <point x="700" y="245" type="line"/>
      <point x="714" y="248" type="line"/>
      <point x="728" y="251" type="line"/>
      <point x="743" y="255" type="line"/>
      <point x="758" y="259" type="line"/>
      <point x="774" y="265" type="line"/>
      <point x="790" y="272" type="line"/>
      <point x="806" y="280" type="line"/>
      <point x="823" y="289" type="line"/>
      <point x="839" y="300" type="line"/>
      <point x="855" y="313" type="line" smooth="yes"/>
      <point x="858" y="315"/>
      <point x="862" y="318"/>
      <point x="864" y="321" type="curve" smooth="yes"/>
      <point x="871" y="327" type="line"/>
      <point x="886" y="342" type="line"/>
      <point x="899" y="359" type="line"/>
      <point x="912" y="377" type="line"/>
      <point x="924" y="396" type="line"/>
      <point x="934" y="416" type="line"/>
      <point x="943" y="437" type="line"/>
      <point x="950" y="458" type="line"/>
      <point x="956" y="480" type="line"/>
      <point x="961" y="502" type="line"/>
      <point x="965" y="525" type="line"/>
      <point x="968" y="548" type="line"/>
      <point x="969" y="572" type="line"/>
      <point x="970" y="597" type="line"/>
      <point x="970" y="614" type="line"/>
      <point x="968" y="632" type="line"/>
      <point x="967" y="643" type="line"/>
      <point x="966" y="654" type="line"/>
      <point x="964" y="666" type="line"/>
      <point x="961" y="678" type="line"/>
      <point x="958" y="692" type="line"/>
      <point x="954" y="706" type="line"/>
      <point x="950" y="720" type="line"/>
      <point x="944" y="735" type="line"/>
      <point x="938" y="751" type="line"/>
      <point x="931" y="767" type="line"/>
      <point x="922" y="784" type="line"/>
      <point x="912" y="801" type="line"/>
      <point x="901" y="818" type="line"/>
      <point x="888" y="835" type="line"/>
      <point x="874" y="852" type="line"/>
      <point x="858" y="868" type="line"/>
      <point x="840" y="884" type="line" smooth="yes"/>
      <point x="837" y="886"/>
      <point x="833" y="889"/>
      <point x="830" y="891" type="curve" smooth="yes"/>
      <point x="820" y="899" type="line"/>
      <point x="799" y="912" type="line" smooth="yes"/>
      <point x="796" y="914"/>
      <point x="791" y="917"/>
      <point x="788" y="918" type="curve" smooth="yes"/>
      <point x="776" y="924" type="line"/>
      <point x="752" y="935" type="line" smooth="yes"/>
      <point x="748" y="936"/>
      <point x="743" y="938"/>
      <point x="740" y="939" type="curve" smooth="yes"/>
      <point x="726" y="944" type="line"/>
      <point x="699" y="951" type="line"/>
      <point x="672" y="956" type="line"/>
      <point x="644" y="959" type="line"/>
      <point x="615" y="960" type="line"/>
      <point x="600" y="960" type="line"/>
      <point x="403" y="960" type="line"/>
      <point x="396" y="960" type="line"/>
      <point x="388" y="960" type="line"/>
      <point x="378" y="960" type="line"/>
      <point x="368" y="959" type="line"/>
      <point x="357" y="959" type="line"/>
      <point x="345" y="958" type="line"/>
      <point x="333" y="956" type="line"/>
      <point x="320" y="955" type="line"/>
      <point x="306" y="952" type="line"/>
      <point x="292" y="949" type="line"/>
      <point x="277" y="945" type="line"/>
      <point x="262" y="941" type="line"/>
      <point x="246" y="935" type="line"/>
      <point x="230" y="928" type="line"/>
      <point x="214" y="920" type="line"/>
      <point x="197" y="911" type="line"/>
      <point x="181" y="900" type="line"/>
      <point x="165" y="887" type="line" smooth="yes"/>
      <point x="162" y="885"/>
      <point x="158" y="882"/>
      <point x="156" y="879" type="curve" smooth="yes"/>
      <point x="149" y="873" type="line"/>
      <point x="134" y="858" type="line"/>
      <point x="121" y="841" type="line"/>
      <point x="108" y="823" type="line"/>
      <point x="96" y="804" type="line"/>
      <point x="86" y="784" type="line"/>
      <point x="77" y="763" type="line"/>
      <point x="70" y="742" type="line"/>
      <point x="64" y="720" type="line"/>
      <point x="59" y="698" type="line"/>
      <point x="55" y="675" type="line"/>
      <point x="52" y="652" type="line"/>
      <point x="51" y="628" type="line"/>
      <point x="50" y="603" type="line" smooth="yes"/>
      <point x="49" y="542"/>
      <point x="84" y="487"/>
      <point x="136" y="459" type="curve"/>
      <point x="127" y="449" type="line"/>
      <point x="114" y="431" type="line"/>
      <point x="102" y="413" type="line"/>
      <point x="91" y="394" type="line"/>
      <point x="82" y="374" type="line"/>
      <point x="74" y="354" type="line"/>
      <point x="67" y="333" type="line"/>
      <point x="62" y="312" type="line"/>
      <point x="57" y="290" type="line"/>
      <point x="54" y="267" type="line"/>
      <point x="52" y="244" type="line"/>
      <point x="50" y="221" type="line"/>
      <point x="50" y="200" type="line"/>
      <point x="50" y="0" type="line" smooth="yes"/>
      <point x="50" y="-88"/>
      <point x="122" y="-160"/>
      <point x="210" y="-160" type="curve" smooth="yes"/>
    </contour>
  </outline>
</glyph>
<glyph name="four" format="1">
  <advance width="1012"/>
  <unicode hex="0034"/>
  <outline>
    <contour>
      <point x="802" y="-159" type="curve" smooth="yes"/>
      <point x="888" y="-159"/>
      <point x="962" y="-85"/>
      <point x="962" y="1" type="curve" smooth="yes"/>
      <point x="962" y="600" type="line" smooth="yes"/>
      <point x="962" y="686"/>
      <point x="888" y="760"/>
      <point x="802" y="760" type="curve" smooth="yes"/>
      <point x="716" y="760"/>
      <point x="642" y="686"/>
      <point x="642" y="600" type="curve" smooth="yes"/>
      <point x="642" y="459" type="line"/>
      <point x="630" y="459" type="line"/>
      <point x="605" y="460" type="line"/>
      <point x="592" y="460" type="line"/>
      <point x="485" y="460" type="line"/>
      <point x="634" y="709" type="line"/>
      <point x="639" y="718" type="line" smooth="yes"/>
      <point x="684" y="792"/>
      <point x="658" y="893"/>
      <point x="584" y="937" type="curve" smooth="yes"/>
      <point x="510" y="982"/>
      <point x="409" y="956"/>
      <point x="365" y="882" type="curve" smooth="yes"/>
      <point x="75" y="400" type="line"/>
      <point x="70" y="391" type="line" smooth="yes"/>
      <point x="44" y="347"/>
      <point x="43" y="275"/>
      <point x="68" y="230" type="curve" smooth="yes"/>
      <point x="72" y="222" type="line" smooth="yes"/>
      <point x="98" y="177"/>
      <point x="160" y="140"/>
      <point x="212" y="140" type="curve" smooth="yes"/>
      <point x="592" y="140" type="line"/>
      <point x="599" y="140" type="line"/>
      <point x="610" y="140" type="line"/>
      <point x="619" y="140" type="line"/>
      <point x="627" y="139" type="line"/>
      <point x="634" y="138" type="line"/>
      <point x="639" y="137" type="line"/>
      <point x="641" y="137" type="line"/>
      <point x="641" y="134" type="line"/>
      <point x="642" y="129" type="line"/>
      <point x="642" y="124" type="line"/>
      <point x="642" y="119" type="line"/>
      <point x="642" y="113" type="line"/>
      <point x="642" y="107" type="line"/>
      <point x="642" y="100" type="line" smooth="yes"/>
      <point x="642" y="1" type="line" smooth="yes"/>
      <point x="642" y="-85"/>
      <point x="716" y="-159"/>
    </contour>
    <contour>
      <point x="639" y="146" type="line"/>
      <point x="638" y="148" type="line"/>
      <point x="638" y="149" type="line"/>
      <point x="638" y="150" type="line"/>
      <point x="638" y="151" type="line"/>
      <point x="638" y="151" type="line"/>
      <point x="638" y="150" type="line"/>
      <point x="639" y="149" type="line"/>
      <point x="639" y="147" type="line"/>
      <point x="640" y="145" type="line"/>
    </contour>
  </outline>
</glyph>
<glyph name="five" format="1">
  <advance width="1020"/>
  <unicode hex="0035"/>
  <outline>
    <contour>
      <point x="373" y="648" type="line"/>
      <point x="373" y="650" type="line"/>
      <point x="374" y="651" type="line"/>
      <point x="374" y="652" type="line"/>
      <point x="374" y="652" type="line"/>
      <point x="374" y="651" type="line"/>
      <point x="374" y="650" type="line"/>
      <point x="374" y="649" type="line"/>
      <point x="373" y="647" type="line"/>
      <point x="372" y="646" type="line"/>
    </contour>
    <contour>
      <point x="617" y="-159" type="line"/>
      <point x="624" y="-159" type="line"/>
      <point x="632" y="-159" type="line"/>
      <point x="642" y="-159" type="line"/>
      <point x="652" y="-158" type="line"/>
      <point x="663" y="-158" type="line"/>
      <point x="675" y="-157" type="line"/>
      <point x="687" y="-155" type="line"/>
      <point x="700" y="-154" type="line"/>
      <point x="714" y="-151" type="line"/>
      <point x="728" y="-148" type="line"/>
      <point x="743" y="-144" type="line"/>
      <point x="758" y="-140" type="line"/>
      <point x="774" y="-134" type="line"/>
      <point x="790" y="-127" type="line"/>
      <point x="806" y="-119" type="line"/>
      <point x="823" y="-110" type="line"/>
      <point x="839" y="-99" type="line"/>
      <point x="855" y="-86" type="line" smooth="yes"/>
      <point x="858" y="-84"/>
      <point x="862" y="-81"/>
      <point x="864" y="-78" type="curve" smooth="yes"/>
      <point x="871" y="-72" type="line"/>
      <point x="886" y="-57" type="line"/>
      <point x="899" y="-40" type="line"/>
      <point x="912" y="-22" type="line"/>
      <point x="924" y="-3" type="line"/>
      <point x="934" y="17" type="line"/>
      <point x="943" y="38" type="line"/>
      <point x="950" y="59" type="line"/>
      <point x="956" y="81" type="line"/>
      <point x="961" y="103" type="line"/>
      <point x="965" y="126" type="line"/>
      <point x="968" y="149" type="line"/>
      <point x="969" y="173" type="line"/>
      <point x="970" y="198" type="line"/>
      <point x="970" y="208" type="line"/>
      <point x="970" y="215" type="line"/>
      <point x="970" y="223" type="line"/>
      <point x="970" y="233" type="line"/>
      <point x="969" y="243" type="line"/>
      <point x="969" y="254" type="line"/>
      <point x="968" y="266" type="line"/>
      <point x="966" y="278" type="line"/>
      <point x="965" y="291" type="line"/>
      <point x="962" y="305" type="line"/>
      <point x="959" y="319" type="line"/>
      <point x="955" y="334" type="line"/>
      <point x="951" y="349" type="line"/>
      <point x="945" y="365" type="line"/>
      <point x="938" y="381" type="line"/>
      <point x="930" y="397" type="line"/>
      <point x="921" y="414" type="line"/>
      <point x="910" y="430" type="line"/>
      <point x="897" y="446" type="line" smooth="yes"/>
      <point x="895" y="449"/>
      <point x="892" y="453"/>
      <point x="889" y="455" type="curve" smooth="yes"/>
      <point x="883" y="462" type="line"/>
      <point x="868" y="477" type="line"/>
      <point x="851" y="490" type="line"/>
      <point x="833" y="503" type="line"/>
      <point x="814" y="515" type="line"/>
      <point x="794" y="525" type="line"/>
      <point x="773" y="534" type="line"/>
      <point x="752" y="541" type="line"/>
      <point x="730" y="547" type="line"/>
      <point x="708" y="552" type="line"/>
      <point x="685" y="556" type="line"/>
      <point x="662" y="559" type="line"/>
      <point x="638" y="560" type="line"/>
      <point x="613" y="561" type="line"/>
      <point x="600" y="561" type="line"/>
      <point x="370" y="561" type="line"/>
      <point x="370" y="601" type="line"/>
      <point x="370" y="608" type="line"/>
      <point x="370" y="614" type="line"/>
      <point x="370" y="620" type="line"/>
      <point x="370" y="625" type="line"/>
      <point x="370" y="630" type="line"/>
      <point x="371" y="635" type="line"/>
      <point x="371" y="638" type="line"/>
      <point x="373" y="638" type="line"/>
      <point x="378" y="639" type="line"/>
      <point x="385" y="640" type="line"/>
      <point x="393" y="641" type="line"/>
      <point x="402" y="641" type="line"/>
      <point x="413" y="641" type="line"/>
      <point x="420" y="641" type="line"/>
      <point x="810" y="641" type="line" smooth="yes"/>
      <point x="896" y="641"/>
      <point x="970" y="715"/>
      <point x="970" y="801" type="curve" smooth="yes"/>
      <point x="970" y="887"/>
      <point x="896" y="961"/>
      <point x="810" y="961" type="curve" smooth="yes"/>
      <point x="420" y="961" type="line"/>
      <point x="407" y="961" type="line"/>
      <point x="382" y="960" type="line"/>
      <point x="358" y="959" type="line"/>
      <point x="335" y="956" type="line"/>
      <point x="312" y="952" type="line"/>
      <point x="290" y="947" type="line"/>
      <point x="268" y="941" type="line"/>
      <point x="247" y="934" type="line"/>
      <point x="226" y="925" type="line"/>
      <point x="206" y="915" type="line"/>
      <point x="187" y="903" type="line"/>
      <point x="169" y="890" type="line"/>
      <point x="152" y="877" type="line"/>
      <point x="137" y="862" type="line"/>
      <point x="131" y="855" type="line" smooth="yes"/>
      <point x="128" y="853"/>
      <point x="125" y="849"/>
      <point x="123" y="846" type="curve" smooth="yes"/>
      <point x="110" y="830" type="line"/>
      <point x="99" y="814" type="line"/>
      <point x="90" y="797" type="line"/>
      <point x="82" y="781" type="line"/>
      <point x="75" y="765" type="line"/>
      <point x="69" y="749" type="line"/>
      <point x="65" y="734" type="line"/>
      <point x="61" y="719" type="line"/>
      <point x="58" y="705" type="line"/>
      <point x="55" y="691" type="line"/>
      <point x="54" y="678" type="line"/>
      <point x="52" y="666" type="line"/>
      <point x="51" y="654" type="line"/>
      <point x="51" y="643" type="line"/>
      <point x="50" y="633" type="line"/>
      <point x="50" y="623" type="line"/>
      <point x="50" y="615" type="line"/>
      <point x="50" y="608" type="line"/>
      <point x="50" y="601" type="line"/>
      <point x="50" y="401" type="line" smooth="yes"/>
      <point x="50" y="363"/>
      <point x="63" y="328"/>
      <point x="86" y="300" type="curve"/>
      <point x="64" y="273"/>
      <point x="50" y="238"/>
      <point x="50" y="201" type="curve" smooth="yes"/>
      <point x="50" y="194" type="line"/>
      <point x="50" y="187" type="line"/>
      <point x="50" y="179" type="line"/>
      <point x="50" y="169" type="line"/>
      <point x="51" y="159" type="line"/>
      <point x="51" y="148" type="line"/>
      <point x="52" y="136" type="line"/>
      <point x="54" y="124" type="line"/>
      <point x="55" y="111" type="line"/>
      <point x="58" y="97" type="line"/>
      <point x="61" y="83" type="line"/>
      <point x="65" y="68" type="line"/>
      <point x="69" y="53" type="line"/>
      <point x="75" y="37" type="line"/>
      <point x="82" y="21" type="line"/>
      <point x="90" y="5" type="line"/>
      <point x="99" y="-12" type="line"/>
      <point x="110" y="-28" type="line"/>
      <point x="123" y="-44" type="line" smooth="yes"/>
      <point x="125" y="-47"/>
      <point x="128" y="-51"/>
      <point x="131" y="-53" type="curve" smooth="yes"/>
      <point x="137" y="-60" type="line"/>
      <point x="152" y="-75" type="line"/>
      <point x="169" y="-88" type="line"/>
      <point x="187" y="-101" type="line"/>
      <point x="206" y="-113" type="line"/>
      <point x="226" y="-123" type="line"/>
      <point x="247" y="-132" type="line"/>
      <point x="268" y="-139" type="line"/>
      <point x="290" y="-145" type="line"/>
      <point x="312" y="-150" type="line"/>
      <point x="335" y="-154" type="line"/>
      <point x="358" y="-157" type="line"/>
      <point x="382" y="-158" type="line"/>
      <point x="407" y="-159" type="line" smooth="yes"/>
      <point x="408" y="-159"/>
      <point x="409" y="-159"/>
      <point x="410" y="-159" type="curve" smooth="yes"/>
    </contour>
    <contour>
      <point x="647" y="247" type="line"/>
      <point x="646" y="249" type="line"/>
      <point x="646" y="250" type="line"/>
      <point x="646" y="251" type="line"/>
      <point x="646" y="252" type="line"/>
      <point x="646" y="252" type="line"/>
      <point x="646" y="251" type="line"/>
      <point x="647" y="250" type="line"/>
      <point x="647" y="248" type="line"/>
      <point x="648" y="246" type="line"/>
    </contour>
    <contour>
      <point x="413" y="161" type="line"/>
      <point x="402" y="161" type="line"/>
      <point x="393" y="161" type="line"/>
      <point x="385" y="162" type="line"/>
      <point x="378" y="163" type="line"/>
      <point x="373" y="164" type="line"/>
      <point x="371" y="164" type="line"/>
      <point x="371" y="167" type="line"/>
      <point x="370" y="172" type="line"/>
      <point x="370" y="177" type="line"/>
      <point x="370" y="182" type="line"/>
      <point x="370" y="188" type="line"/>
      <point x="370" y="194" type="line"/>
      <point x="370" y="201" type="line" smooth="yes"/>
      <point x="370" y="215"/>
      <point x="368" y="228"/>
      <point x="365" y="241" type="curve"/>
      <point x="600" y="241" type="line"/>
      <point x="607" y="241" type="line"/>
      <point x="618" y="241" type="line"/>
      <point x="627" y="241" type="line"/>
      <point x="635" y="240" type="line"/>
      <point x="642" y="239" type="line"/>
      <point x="647" y="238" type="line"/>
      <point x="649" y="238" type="line"/>
      <point x="649" y="235" type="line"/>
      <point x="650" y="230" type="line"/>
      <point x="650" y="225" type="line"/>
      <point x="650" y="220" type="line"/>
      <point x="650" y="214" type="line"/>
      <point x="650" y="208" type="line"/>
      <point x="650" y="204" type="line"/>
      <point x="650" y="193" type="line"/>
      <point x="650" y="184" type="line"/>
      <point x="649" y="176" type="line"/>
      <point x="648" y="169" type="line"/>
      <point x="647" y="164" type="line"/>
      <point x="647" y="162" type="line"/>
      <point x="644" y="162" type="line"/>
      <point x="639" y="161" type="line"/>
      <point x="634" y="161" type="line"/>
      <point x="629" y="161" type="line"/>
      <point x="623" y="161" type="line"/>
      <point x="617" y="161" type="line"/>
      <point x="410" y="161" type="line"/>
    </contour>
    <contour>
      <point x="656" y="164" type="line"/>
      <point x="658" y="165" type="line"/>
      <point x="659" y="165" type="line"/>
      <point x="660" y="165" type="line"/>
      <point x="661" y="165" type="line"/>
      <point x="661" y="165" type="line"/>
      <point x="660" y="165" type="line"/>
      <point x="659" y="164" type="line"/>
      <point x="657" y="164" type="line"/>
      <point x="655" y="163" type="line"/>
    </contour>
    <contour>
      <point x="374" y="150" type="line"/>
      <point x="374" y="150" type="line"/>
      <point x="374" y="151" type="line"/>
      <point x="373" y="152" type="line"/>
      <point x="373" y="154" type="line"/>
      <point x="372" y="156" type="line"/>
      <point x="373" y="155" type="line"/>
      <point x="374" y="153" type="line"/>
      <point x="374" y="152" type="line"/>
      <point x="374" y="151" type="line"/>
    </contour>
  </outline>
</glyph>
<glyph name="six" format="1">
  <advance width="1020"/>
  <unicode hex="0036"/>
  <outline>
    <contour>
      <point x="410" y="-159" type="line"/>
      <point x="617" y="-159" type="line"/>
      <point x="625" y="-159" type="line"/>
      <point x="634" y="-159" type="line"/>
      <point x="644" y="-159" type="line"/>
      <point x="655" y="-158" type="line"/>
      <point x="667" y="-157" type="line"/>
      <point x="679" y="-156" type="line"/>
      <point x="692" y="-155" type="line"/>
      <point x="705" y="-153" type="line"/>
      <point x="720" y="-150" type="line"/>
      <point x="735" y="-147" type="line"/>
      <point x="750" y="-142" type="line"/>
      <point x="766" y="-137" type="line"/>
      <point x="782" y="-131" type="line"/>
      <point x="799" y="-123" type="line"/>
      <point x="815" y="-114" type="line"/>
      <point x="832" y="-104" type="line"/>
      <point x="848" y="-92" type="line"/>
      <point x="855" y="-86" type="line" smooth="yes"/>
      <point x="858" y="-84"/>
      <point x="862" y="-81"/>
      <point x="864" y="-78" type="curve" smooth="yes"/>
      <point x="879" y="-64" type="line"/>
      <point x="893" y="-48" type="line"/>
      <point x="906" y="-30" type="line"/>
      <point x="918" y="-12" type="line"/>
      <point x="929" y="7" type="line"/>
      <point x="938" y="27" type="line"/>
      <point x="946" y="47" type="line"/>
      <point x="953" y="68" type="line"/>
      <point x="958" y="89" type="line"/>
      <point x="963" y="111" type="line"/>
      <point x="966" y="134" type="line"/>
      <point x="968" y="157" type="line"/>
      <point x="970" y="180" type="line"/>
      <point x="970" y="201" type="line"/>
      <point x="970" y="208" type="line"/>
      <point x="970" y="216" type="line"/>
      <point x="970" y="225" type="line"/>
      <point x="970" y="235" type="line"/>
      <point x="969" y="246" type="line"/>
      <point x="968" y="258" type="line"/>
      <point x="967" y="270" type="line"/>
      <point x="966" y="283" type="line"/>
      <point x="964" y="296" type="line"/>
      <point x="961" y="311" type="line"/>
      <point x="958" y="326" type="line"/>
      <point x="953" y="341" type="line"/>
      <point x="948" y="357" type="line"/>
      <point x="942" y="373" type="line"/>
      <point x="934" y="390" type="line"/>
      <point x="925" y="406" type="line"/>
      <point x="915" y="423" type="line"/>
      <point x="903" y="439" type="line"/>
      <point x="897" y="446" type="line" smooth="yes"/>
      <point x="895" y="449"/>
      <point x="892" y="453"/>
      <point x="889" y="455" type="curve" smooth="yes"/>
      <point x="884" y="460" type="line"/>
      <point x="936" y="488"/>
      <point x="971" y="543"/>
      <point x="970" y="604" type="curve" smooth="yes"/>
      <point x="969" y="629" type="line"/>
      <point x="968" y="653" type="line"/>
      <point x="965" y="676" type="line"/>
      <point x="961" y="699" type="line"/>
      <point x="956" y="721" type="line"/>
      <point x="950" y="743" type="line"/>
      <point x="943" y="764" type="line"/>
      <point x="934" y="785" type="line"/>
      <point x="924" y="805" type="line"/>
      <point x="912" y="824" type="line"/>
      <point x="899" y="842" type="line"/>
      <point x="886" y="859" type="line"/>
      <point x="871" y="874" type="line"/>
      <point x="864" y="880" type="line" smooth="yes"/>
      <point x="862" y="883"/>
      <point x="858" y="886"/>
      <point x="855" y="888" type="curve" smooth="yes"/>
      <point x="839" y="901" type="line"/>
      <point x="823" y="912" type="line"/>
      <point x="806" y="921" type="line"/>
      <point x="790" y="929" type="line"/>
      <point x="774" y="936" type="line"/>
      <point x="758" y="942" type="line"/>
      <point x="743" y="946" type="line"/>
      <point x="728" y="950" type="line"/>
      <point x="714" y="953" type="line"/>
      <point x="700" y="956" type="line"/>
      <point x="687" y="957" type="line"/>
      <point x="675" y="959" type="line"/>
      <point x="663" y="960" type="line"/>
      <point x="652" y="960" type="line"/>
      <point x="642" y="961" type="line"/>
      <point x="632" y="961" type="line"/>
      <point x="624" y="961" type="line"/>
      <point x="617" y="961" type="line"/>
      <point x="610" y="961" type="line" smooth="yes"/>
      <point x="420" y="961" type="line"/>
      <point x="407" y="961" type="line"/>
      <point x="382" y="960" type="line"/>
      <point x="358" y="959" type="line"/>
      <point x="335" y="956" type="line"/>
      <point x="312" y="952" type="line"/>
      <point x="290" y="947" type="line"/>
      <point x="268" y="941" type="line"/>
      <point x="247" y="934" type="line"/>
      <point x="226" y="925" type="line"/>
      <point x="206" y="915" type="line"/>
      <point x="187" y="903" type="line"/>
      <point x="169" y="890" type="line"/>
      <point x="152" y="877" type="line"/>
      <point x="137" y="862" type="line"/>
      <point x="131" y="855" type="line" smooth="yes"/>
      <point x="128" y="853"/>
      <point x="125" y="849"/>
      <point x="123" y="846" type="curve" smooth="yes"/>
      <point x="110" y="830" type="line"/>
      <point x="99" y="814" type="line"/>
      <point x="90" y="797" type="line"/>
      <point x="82" y="781" type="line"/>
      <point x="75" y="765" type="line"/>
      <point x="69" y="749" type="line"/>
      <point x="65" y="734" type="line"/>
      <point x="61" y="719" type="line"/>
      <point x="58" y="705" type="line"/>
      <point x="55" y="691" type="line"/>
      <point x="54" y="678" type="line"/>
      <point x="52" y="666" type="line"/>
      <point x="51" y="654" type="line"/>
      <point x="51" y="643" type="line"/>
      <point x="50" y="633" type="line"/>
      <point x="50" y="623" type="line"/>
      <point x="50" y="615" type="line"/>
      <point x="50" y="608" type="line"/>
      <point x="50" y="601" type="line"/>
      <point x="50" y="201" type="line"/>
      <point x="50" y="194" type="line"/>
      <point x="50" y="186" type="line"/>
      <point x="50" y="177" type="line"/>
      <point x="50" y="167" type="line"/>
      <point x="51" y="156" type="line"/>
      <point x="52" y="144" type="line"/>
      <point x="53" y="132" type="line"/>
      <point x="54" y="119" type="line"/>
      <point x="56" y="106" type="line"/>
      <point x="59" y="91" type="line"/>
      <point x="62" y="76" type="line"/>
      <point x="67" y="61" type="line"/>
      <point x="72" y="45" type="line"/>
      <point x="78" y="29" type="line"/>
      <point x="86" y="12" type="line"/>
      <point x="95" y="-4" type="line"/>
      <point x="105" y="-21" type="line"/>
      <point x="117" y="-37" type="line"/>
      <point x="123" y="-44" type="line" smooth="yes"/>
      <point x="125" y="-47"/>
      <point x="128" y="-51"/>
      <point x="131" y="-53" type="curve" smooth="yes"/>
      <point x="145" y="-68" type="line"/>
      <point x="161" y="-82" type="line"/>
      <point x="179" y="-95" type="line"/>
      <point x="197" y="-107" type="line"/>
      <point x="216" y="-118" type="line"/>
      <point x="236" y="-127" type="line"/>
      <point x="256" y="-135" type="line"/>
      <point x="277" y="-142" type="line"/>
      <point x="298" y="-147" type="line"/>
      <point x="320" y="-152" type="line"/>
      <point x="343" y="-155" type="line"/>
      <point x="366" y="-157" type="line"/>
      <point x="389" y="-159" type="line"/>
    </contour>
    <contour>
      <point x="373" y="648" type="line"/>
      <point x="373" y="650" type="line"/>
      <point x="374" y="651" type="line"/>
      <point x="374" y="652" type="line"/>
      <point x="374" y="652" type="line"/>
      <point x="374" y="651" type="line"/>
      <point x="374" y="650" type="line"/>
      <point x="374" y="649" type="line"/>
      <point x="373" y="647" type="line"/>
      <point x="372" y="646" type="line"/>
    </contour>
    <contour>
      <point x="654" y="559" type="line"/>
      <point x="631" y="561" type="line"/>
      <point x="613" y="561" type="line" smooth="yes"/>
      <point x="612" y="561"/>
      <point x="611" y="561"/>
      <point x="610" y="561" type="curve" smooth="yes"/>
      <point x="410" y="561" type="line"/>
      <point x="413" y="561" type="line"/>
      <point x="402" y="561" type="line"/>
      <point x="393" y="561" type="line"/>
      <point x="385" y="562" type="line"/>
      <point x="378" y="563" type="line"/>
      <point x="373" y="564" type="line"/>
      <point x="371" y="564" type="line"/>
      <point x="371" y="567" type="line"/>
      <point x="370" y="572" type="line"/>
      <point x="370" y="577" type="line"/>
      <point x="370" y="582" type="line"/>
      <point x="370" y="588" type="line"/>
      <point x="370" y="594" type="line"/>
      <point x="370" y="601" type="line" smooth="yes"/>
      <point x="370" y="601" type="line"/>
      <point x="370" y="608" type="line"/>
      <point x="370" y="614" type="line"/>
      <point x="370" y="620" type="line"/>
      <point x="370" y="625" type="line"/>
      <point x="370" y="630" type="line"/>
      <point x="371" y="635" type="line"/>
      <point x="371" y="638" type="line"/>
      <point x="373" y="638" type="line"/>
      <point x="378" y="639" type="line"/>
      <point x="385" y="640" type="line"/>
      <point x="393" y="641" type="line"/>
      <point x="402" y="641" type="line"/>
      <point x="413" y="641" type="line"/>
      <point x="420" y="641" type="line"/>
      <point x="610" y="641" type="line"/>
      <point x="617" y="641" type="line"/>
      <point x="623" y="641" type="line"/>
      <point x="629" y="641" type="line"/>
      <point x="634" y="641" type="line"/>
      <point x="639" y="641" type="line"/>
      <point x="644" y="640" type="line"/>
      <point x="647" y="640" type="line"/>
      <point x="647" y="638" type="line"/>
      <point x="648" y="633" type="line"/>
      <point x="649" y="626" type="line"/>
      <point x="650" y="618" type="line"/>
      <point x="650" y="609" type="line"/>
      <point x="650" y="598" type="line" smooth="yes"/>
      <point x="650" y="585"/>
      <point x="652" y="572"/>
      <point x="656" y="559" type="curve"/>
    </contour>
    <contour>
      <point x="660" y="637" type="line"/>
      <point x="659" y="637" type="line"/>
      <point x="658" y="637" type="line"/>
      <point x="656" y="638" type="line"/>
      <point x="655" y="639" type="line"/>
      <point x="657" y="638" type="line"/>
      <point x="659" y="638" type="line"/>
      <point x="660" y="637" type="line"/>
      <point x="661" y="637" type="line"/>
      <point x="661" y="637" type="line"/>
    </contour>
    <contour>
      <point x="374" y="550" type="line"/>
      <point x="374" y="550" type="line"/>
      <point x="374" y="551" type="line"/>
      <point x="373" y="552" type="line"/>
      <point x="373" y="554" type="line"/>
      <point x="372" y="556" type="line"/>
      <point x="373" y="555" type="line"/>
      <point x="374" y="553" type="line"/>
      <point x="374" y="552" type="line"/>
      <point x="374" y="551" type="line"/>
    </contour>
    <contour>
      <point x="616" y="161" type="line"/>
      <point x="410" y="161" type="line"/>
      <point x="395" y="161" type="line"/>
      <point x="385" y="162" type="line"/>
      <point x="377" y="163" type="line"/>
      <point x="371" y="164" type="line"/>
      <point x="371" y="164" type="line"/>
      <point x="371" y="167" type="line"/>
      <point x="370" y="171" type="line"/>
      <point x="370" y="175" type="line"/>
      <point x="370" y="179" type="line"/>
      <point x="370" y="184" type="line"/>
      <point x="370" y="189" type="line"/>
      <point x="370" y="195" type="line"/>
      <point x="370" y="201" type="line"/>
      <point x="370" y="242" type="line"/>
      <point x="382" y="242" type="line"/>
      <point x="407" y="241" type="line" smooth="yes"/>
      <point x="408" y="241"/>
      <point x="409" y="241"/>
      <point x="410" y="241" type="curve" smooth="yes"/>
      <point x="608" y="241" type="line"/>
      <point x="625" y="241" type="line"/>
      <point x="635" y="240" type="line"/>
      <point x="643" y="239" type="line"/>
      <point x="649" y="238" type="line"/>
      <point x="649" y="238" type="line"/>
      <point x="649" y="235" type="line"/>
      <point x="650" y="231" type="line"/>
      <point x="650" y="227" type="line"/>
      <point x="650" y="223" type="line"/>
      <point x="650" y="218" type="line"/>
      <point x="650" y="213" type="line"/>
      <point x="650" y="207" type="line"/>
      <point x="650" y="201" type="line"/>
      <point x="650" y="186" type="line"/>
      <point x="649" y="176" type="line"/>
      <point x="648" y="168" type="line"/>
      <point x="647" y="162" type="line"/>
      <point x="647" y="162" type="line"/>
      <point x="644" y="162" type="line"/>
      <point x="640" y="161" type="line"/>
      <point x="636" y="161" type="line"/>
      <point x="632" y="161" type="line"/>
      <point x="627" y="161" type="line"/>
      <point x="622" y="161" type="line"/>
    </contour>
    <contour>
      <point x="663" y="232" type="line"/>
      <point x="662" y="233" type="line"/>
      <point x="660" y="233" type="line"/>
      <point x="658" y="235" type="line"/>
      <point x="656" y="236" type="line"/>
      <point x="659" y="235" type="line"/>
      <point x="662" y="234" type="line"/>
      <point x="663" y="233" type="line"/>
      <point x="664" y="232" type="line"/>
    </contour>
    <contour>
      <point x="361" y="167" type="line"/>
      <point x="358" y="168" type="line"/>
      <point x="357" y="169" type="line"/>
      <point x="356" y="170" type="line"/>
      <point x="357" y="170" type="line"/>
      <point x="358" y="169" type="line"/>
      <point x="360" y="169" type="line"/>
      <point x="362" y="167" type="line"/>
      <point x="364" y="166" type="line"/>
    </contour>
    <contour>
      <point x="641" y="147" type="line"/>
      <point x="641" y="148" type="line"/>
      <point x="642" y="149" type="line"/>
      <point x="642" y="151" type="line"/>
      <point x="644" y="153" type="line"/>
      <point x="645" y="155" type="line"/>
      <point x="644" y="152" type="line"/>
      <point x="643" y="149" type="line"/>
      <point x="642" y="148" type="line"/>
    </contour>
  </outline>
</glyph>
<glyph name="seven" format="1">
  <advance width="1019"/>
  <unicode hex="0037"/>
  <outline>
    <contour>
      <point x="543" y="-92" type="curve" smooth="yes"/>
      <point x="937" y="500" type="line"/>
      <point x="942" y="508" type="line" smooth="yes"/>
      <point x="957" y="531"/>
      <point x="969" y="570"/>
      <point x="969" y="597" type="curve" smooth="yes"/>
      <point x="969" y="604" type="line"/>
      <point x="969" y="611" type="line"/>
      <point x="969" y="619" type="line"/>
      <point x="969" y="628" type="line"/>
      <point x="968" y="639" type="line"/>
      <point x="968" y="649" type="line"/>
      <point x="967" y="661" type="line"/>
      <point x="966" y="673" type="line"/>
      <point x="964" y="686" type="line"/>
      <point x="962" y="700" type="line"/>
      <point x="959" y="714" type="line"/>
      <point x="955" y="729" type="line"/>
      <point x="950" y="745" type="line"/>
      <point x="945" y="760" type="line"/>
      <point x="938" y="777" type="line"/>
      <point x="930" y="793" type="line"/>
      <point x="920" y="810" type="line"/>
      <point x="909" y="826" type="line"/>
      <point x="897" y="842" type="line" smooth="yes"/>
      <point x="895" y="845"/>
      <point x="891" y="849"/>
      <point x="889" y="851" type="curve" smooth="yes"/>
      <point x="883" y="858" type="line"/>
      <point x="867" y="872" type="line"/>
      <point x="850" y="886" type="line"/>
      <point x="832" y="899" type="line"/>
      <point x="813" y="911" type="line"/>
      <point x="793" y="921" type="line"/>
      <point x="773" y="930" type="line"/>
      <point x="751" y="937" type="line"/>
      <point x="729" y="943" type="line"/>
      <point x="707" y="948" type="line"/>
      <point x="684" y="952" type="line"/>
      <point x="661" y="955" type="line"/>
      <point x="637" y="956" type="line"/>
      <point x="612" y="957" type="line"/>
      <point x="599" y="957" type="line"/>
      <point x="210" y="957" type="line" smooth="yes"/>
      <point x="124" y="957"/>
      <point x="50" y="883"/>
      <point x="50" y="797" type="curve" smooth="yes"/>
      <point x="50" y="711"/>
      <point x="124" y="637"/>
      <point x="210" y="637" type="curve" smooth="yes"/>
      <point x="599" y="637" type="line"/>
      <point x="606" y="637" type="line"/>
      <point x="617" y="637" type="line"/>
      <point x="627" y="637" type="line"/>
      <point x="635" y="636" type="line"/>
      <point x="641" y="635" type="line"/>
      <point x="642" y="635" type="line"/>
      <point x="282" y="94" type="line"/>
      <point x="277" y="86" type="line" smooth="yes"/>
      <point x="229" y="14"/>
      <point x="249" y="-88"/>
      <point x="321" y="-136" type="curve" smooth="yes"/>
      <point x="393" y="-184"/>
      <point x="495" y="-164"/>
    </contour>
    <contour>
      <point x="646" y="643" type="line"/>
      <point x="646" y="645" type="line"/>
      <point x="645" y="647" type="line"/>
      <point x="645" y="648" type="line"/>
      <point x="645" y="648" type="line"/>
      <point x="645" y="648" type="line"/>
      <point x="645" y="648" type="line"/>
      <point x="646" y="647" type="line"/>
      <point x="646" y="645" type="line"/>
      <point x="647" y="642" type="line"/>
    </contour>
  </outline>
</glyph>
<glyph name="eight" format="1">
  <advance width="1020"/>
  <unicode hex="0038"/>
  <outline>
    <contour>
      <point x="410" y="-160" type="line"/>
      <point x="617" y="-160" type="line"/>
      <point x="625" y="-160" type="line"/>
      <point x="634" y="-160" type="line"/>
      <point x="644" y="-160" type="line"/>
      <point x="655" y="-159" type="line"/>
      <point x="667" y="-158" type="line"/>
      <point x="679" y="-157" type="line"/>
      <point x="692" y="-156" type="line"/>
      <point x="705" y="-154" type="line"/>
      <point x="720" y="-151" type="line"/>
      <point x="735" y="-148" type="line"/>
      <point x="750" y="-143" type="line"/>
      <point x="766" y="-138" type="line"/>
      <point x="782" y="-132" type="line"/>
      <point x="799" y="-124" type="line"/>
      <point x="815" y="-115" type="line"/>
      <point x="832" y="-105" type="line"/>
      <point x="848" y="-93" type="line"/>
      <point x="855" y="-87" type="line" smooth="yes"/>
      <point x="858" y="-85"/>
      <point x="862" y="-82"/>
      <point x="864" y="-79" type="curve" smooth="yes"/>
      <point x="879" y="-65" type="line"/>
      <point x="893" y="-49" type="line"/>
      <point x="906" y="-31" type="line"/>
      <point x="918" y="-13" type="line"/>
      <point x="929" y="6" type="line"/>
      <point x="938" y="26" type="line"/>
      <point x="946" y="46" type="line"/>
      <point x="953" y="67" type="line"/>
      <point x="958" y="88" type="line"/>
      <point x="963" y="110" type="line"/>
      <point x="966" y="133" type="line"/>
      <point x="968" y="156" type="line"/>
      <point x="970" y="179" type="line"/>
      <point x="970" y="200" type="line"/>
      <point x="970" y="207" type="line"/>
      <point x="970" y="215" type="line"/>
      <point x="970" y="224" type="line"/>
      <point x="970" y="234" type="line"/>
      <point x="969" y="245" type="line"/>
      <point x="968" y="257" type="line"/>
      <point x="967" y="269" type="line"/>
      <point x="966" y="282" type="line"/>
      <point x="964" y="295" type="line"/>
      <point x="961" y="310" type="line"/>
      <point x="958" y="325" type="line"/>
      <point x="953" y="340" type="line"/>
      <point x="948" y="356" type="line"/>
      <point x="942" y="372" type="line"/>
      <point x="934" y="389" type="line"/>
      <point x="927" y="402" type="line"/>
      <point x="934" y="416" type="line"/>
      <point x="943" y="437" type="line"/>
      <point x="950" y="458" type="line"/>
      <point x="956" y="480" type="line"/>
      <point x="961" y="502" type="line"/>
      <point x="965" y="525" type="line"/>
      <point x="968" y="548" type="line"/>
      <point x="969" y="572" type="line"/>
      <point x="970" y="597" type="line"/>
      <point x="970" y="607" type="line"/>
      <point x="970" y="614" type="line"/>
      <point x="970" y="622" type="line"/>
      <point x="970" y="632" type="line"/>
      <point x="969" y="642" type="line"/>
      <point x="969" y="653" type="line"/>
      <point x="968" y="665" type="line"/>
      <point x="966" y="677" type="line"/>
      <point x="965" y="690" type="line"/>
      <point x="962" y="704" type="line"/>
      <point x="959" y="718" type="line"/>
      <point x="955" y="733" type="line"/>
      <point x="951" y="748" type="line"/>
      <point x="945" y="764" type="line"/>
      <point x="938" y="780" type="line"/>
      <point x="930" y="796" type="line"/>
      <point x="921" y="813" type="line"/>
      <point x="910" y="829" type="line"/>
      <point x="897" y="845" type="line" smooth="yes"/>
      <point x="895" y="848"/>
      <point x="892" y="852"/>
      <point x="889" y="854" type="curve" smooth="yes"/>
      <point x="883" y="861" type="line"/>
      <point x="868" y="876" type="line"/>
      <point x="851" y="889" type="line"/>
      <point x="833" y="902" type="line"/>
      <point x="814" y="914" type="line"/>
      <point x="794" y="924" type="line"/>
      <point x="773" y="933" type="line"/>
      <point x="752" y="940" type="line"/>
      <point x="730" y="946" type="line"/>
      <point x="708" y="951" type="line"/>
      <point x="685" y="955" type="line"/>
      <point x="662" y="958" type="line"/>
      <point x="638" y="959" type="line"/>
      <point x="613" y="960" type="line"/>
      <point x="600" y="960" type="line"/>
      <point x="403" y="960" type="line"/>
      <point x="396" y="960" type="line"/>
      <point x="388" y="960" type="line"/>
      <point x="378" y="960" type="line"/>
      <point x="368" y="959" type="line"/>
      <point x="357" y="959" type="line"/>
      <point x="345" y="958" type="line"/>
      <point x="333" y="956" type="line"/>
      <point x="320" y="955" type="line"/>
      <point x="306" y="952" type="line"/>
      <point x="292" y="949" type="line"/>
      <point x="277" y="945" type="line"/>
      <point x="262" y="941" type="line"/>
      <point x="246" y="935" type="line"/>
      <point x="230" y="928" type="line"/>
      <point x="214" y="920" type="line"/>
      <point x="197" y="911" type="line"/>
      <point x="181" y="900" type="line"/>
      <point x="165" y="887" type="line" smooth="yes"/>
      <point x="162" y="885"/>
      <point x="158" y="882"/>
      <point x="156" y="879" type="curve" smooth="yes"/>
      <point x="149" y="873" type="line"/>
      <point x="134" y="858" type="line"/>
      <point x="121" y="841" type="line"/>
      <point x="108" y="823" type="line"/>
      <point x="96" y="804" type="line"/>
      <point x="86" y="784" type="line"/>
      <point x="77" y="763" type="line"/>
      <point x="70" y="742" type="line"/>
      <point x="64" y="720" type="line"/>
      <point x="59" y="698" type="line"/>
      <point x="55" y="675" type="line"/>
      <point x="52" y="652" type="line"/>
      <point x="51" y="628" type="line"/>
      <point x="50" y="603" type="line"/>
      <point x="50" y="593" type="line"/>
      <point x="50" y="586" type="line"/>
      <point x="50" y="578" type="line"/>
      <point x="50" y="568" type="line"/>
      <point x="51" y="558" type="line"/>
      <point x="51" y="547" type="line"/>
      <point x="52" y="535" type="line"/>
      <point x="54" y="523" type="line"/>
      <point x="55" y="510" type="line"/>
      <point x="58" y="496" type="line"/>
      <point x="61" y="482" type="line"/>
      <point x="65" y="467" type="line"/>
      <point x="69" y="452" type="line"/>
      <point x="75" y="436" type="line"/>
      <point x="82" y="420" type="line"/>
      <point x="90" y="404" type="line"/>
      <point x="93" y="398" type="line"/>
      <point x="91" y="394" type="line"/>
      <point x="82" y="374" type="line"/>
      <point x="74" y="354" type="line"/>
      <point x="67" y="333" type="line"/>
      <point x="62" y="312" type="line"/>
      <point x="57" y="290" type="line"/>
      <point x="54" y="267" type="line"/>
      <point x="52" y="244" type="line"/>
      <point x="50" y="221" type="line"/>
      <point x="50" y="200" type="line"/>
      <point x="50" y="193" type="line"/>
      <point x="50" y="185" type="line"/>
      <point x="50" y="176" type="line"/>
      <point x="50" y="166" type="line"/>
      <point x="51" y="155" type="line"/>
      <point x="52" y="143" type="line"/>
      <point x="53" y="131" type="line"/>
      <point x="54" y="118" type="line"/>
      <point x="56" y="105" type="line"/>
      <point x="59" y="90" type="line"/>
      <point x="62" y="75" type="line"/>
      <point x="67" y="60" type="line"/>
      <point x="72" y="44" type="line"/>
      <point x="78" y="28" type="line"/>
      <point x="86" y="11" type="line"/>
      <point x="95" y="-5" type="line"/>
      <point x="105" y="-22" type="line"/>
      <point x="117" y="-38" type="line"/>
      <point x="123" y="-45" type="line" smooth="yes"/>
      <point x="125" y="-48"/>
      <point x="128" y="-52"/>
      <point x="131" y="-54" type="curve" smooth="yes"/>
      <point x="145" y="-69" type="line"/>
      <point x="161" y="-83" type="line"/>
      <point x="179" y="-96" type="line"/>
      <point x="197" y="-108" type="line"/>
      <point x="216" y="-119" type="line"/>
      <point x="236" y="-128" type="line"/>
      <point x="256" y="-136" type="line"/>
      <point x="277" y="-143" type="line"/>
      <point x="298" y="-148" type="line"/>
      <point x="320" y="-153" type="line"/>
      <point x="343" y="-156" type="line"/>
      <point x="366" y="-158" type="line"/>
      <point x="389" y="-160" type="line"/>
    </contour>
    <contour>
      <point x="647" y="646" type="line"/>
      <point x="646" y="648" type="line"/>
      <point x="646" y="649" type="line"/>
      <point x="646" y="650" type="line"/>
      <point x="646" y="651" type="line"/>
      <point x="646" y="651" type="line"/>
      <point x="646" y="650" type="line"/>
      <point x="647" y="649" type="line"/>
      <point x="647" y="647" type="line"/>
      <point x="648" y="645" type="line"/>
    </contour>
    <contour>
      <point x="360" y="636" type="line"/>
      <point x="359" y="636" type="line"/>
      <point x="359" y="636" type="line"/>
      <point x="360" y="636" type="line"/>
      <point x="361" y="637" type="line"/>
      <point x="363" y="637" type="line"/>
      <point x="365" y="638" type="line"/>
      <point x="364" y="637" type="line"/>
      <point x="362" y="636" type="line"/>
      <point x="361" y="636" type="line"/>
    </contour>
    <contour>
      <point x="656" y="563" type="line"/>
      <point x="658" y="564" type="line"/>
      <point x="659" y="564" type="line"/>
      <point x="660" y="564" type="line"/>
      <point x="661" y="564" type="line"/>
      <point x="661" y="564" type="line"/>
      <point x="660" y="564" type="line"/>
      <point x="659" y="563" type="line"/>
      <point x="657" y="563" type="line"/>
      <point x="655" y="562" type="line"/>
    </contour>
    <contour>
      <point x="402" y="560" type="line"/>
      <point x="393" y="560" type="line"/>
      <point x="385" y="561" type="line"/>
      <point x="378" y="562" type="line"/>
      <point x="373" y="563" type="line"/>
      <point x="371" y="563" type="line"/>
      <point x="371" y="566" type="line"/>
      <point x="370" y="571" type="line"/>
      <point x="370" y="576" type="line"/>
      <point x="370" y="581" type="line"/>
      <point x="370" y="587" type="line"/>
      <point x="370" y="593" type="line"/>
      <point x="370" y="597" type="line"/>
      <point x="370" y="608" type="line"/>
      <point x="370" y="617" type="line"/>
      <point x="371" y="625" type="line"/>
      <point x="372" y="632" type="line"/>
      <point x="373" y="637" type="line"/>
      <point x="373" y="639" type="line"/>
      <point x="376" y="639" type="line"/>
      <point x="381" y="640" type="line"/>
      <point x="386" y="640" type="line"/>
      <point x="391" y="640" type="line"/>
      <point x="397" y="640" type="line"/>
      <point x="403" y="640" type="line"/>
      <point x="600" y="640" type="line"/>
      <point x="607" y="640" type="line"/>
      <point x="618" y="640" type="line"/>
      <point x="627" y="640" type="line"/>
      <point x="635" y="639" type="line"/>
      <point x="642" y="638" type="line"/>
      <point x="647" y="637" type="line"/>
      <point x="649" y="637" type="line"/>
      <point x="649" y="634" type="line"/>
      <point x="650" y="629" type="line"/>
      <point x="650" y="624" type="line"/>
      <point x="650" y="619" type="line"/>
      <point x="650" y="613" type="line"/>
      <point x="650" y="607" type="line"/>
      <point x="650" y="603" type="line"/>
      <point x="650" y="592" type="line"/>
      <point x="650" y="583" type="line"/>
      <point x="649" y="575" type="line"/>
      <point x="648" y="568" type="line"/>
      <point x="647" y="563" type="line"/>
      <point x="647" y="561" type="line"/>
      <point x="644" y="561" type="line"/>
      <point x="639" y="560" type="line"/>
      <point x="634" y="560" type="line"/>
      <point x="629" y="560" type="line"/>
      <point x="623" y="560" type="line"/>
      <point x="617" y="560" type="line"/>
      <point x="610" y="560" type="line" smooth="yes"/>
      <point x="410" y="560" type="line"/>
      <point x="410" y="560" type="line"/>
      <point x="409" y="560" type="line"/>
    </contour>
    <contour>
      <point x="616" y="160" type="line"/>
      <point x="410" y="160" type="line"/>
      <point x="395" y="160" type="line"/>
      <point x="385" y="161" type="line"/>
      <point x="377" y="162" type="line"/>
      <point x="371" y="163" type="line"/>
      <point x="371" y="163" type="line"/>
      <point x="371" y="166" type="line"/>
      <point x="370" y="170" type="line"/>
      <point x="370" y="174" type="line"/>
      <point x="370" y="178" type="line"/>
      <point x="370" y="183" type="line"/>
      <point x="370" y="188" type="line"/>
      <point x="370" y="194" type="line"/>
      <point x="370" y="200" type="line"/>
      <point x="370" y="215" type="line"/>
      <point x="371" y="225" type="line"/>
      <point x="372" y="233" type="line"/>
      <point x="373" y="239" type="line"/>
      <point x="373" y="239" type="line"/>
      <point x="376" y="239" type="line"/>
      <point x="380" y="240" type="line"/>
      <point x="384" y="240" type="line"/>
      <point x="388" y="240" type="line"/>
      <point x="393" y="240" type="line"/>
      <point x="398" y="240" type="line"/>
      <point x="404" y="240" type="line"/>
      <point x="410" y="240" type="line"/>
      <point x="410" y="240" type="line" smooth="yes"/>
      <point x="608" y="240" type="line"/>
      <point x="625" y="240" type="line"/>
      <point x="635" y="239" type="line"/>
      <point x="643" y="238" type="line"/>
      <point x="649" y="237" type="line"/>
      <point x="649" y="237" type="line"/>
      <point x="649" y="234" type="line"/>
      <point x="650" y="230" type="line"/>
      <point x="650" y="226" type="line"/>
      <point x="650" y="222" type="line"/>
      <point x="650" y="217" type="line"/>
      <point x="650" y="212" type="line"/>
      <point x="650" y="206" type="line"/>
      <point x="650" y="200" type="line"/>
      <point x="650" y="185" type="line"/>
      <point x="649" y="175" type="line"/>
      <point x="648" y="167" type="line"/>
      <point x="647" y="161" type="line"/>
      <point x="647" y="161" type="line"/>
      <point x="644" y="161" type="line"/>
      <point x="640" y="160" type="line"/>
      <point x="636" y="160" type="line"/>
      <point x="632" y="160" type="line"/>
      <point x="627" y="160" type="line"/>
      <point x="622" y="160" type="line"/>
    </contour>
    <contour>
      <point x="663" y="231" type="line"/>
      <point x="662" y="232" type="line"/>
      <point x="660" y="232" type="line"/>
      <point x="658" y="234" type="line"/>
      <point x="656" y="235" type="line"/>
      <point x="659" y="234" type="line"/>
      <point x="662" y="233" type="line"/>
      <point x="663" y="232" type="line"/>
      <point x="664" y="231" type="line"/>
    </contour>
    <contour>
      <point x="361" y="166" type="line"/>
      <point x="358" y="167" type="line"/>
      <point x="357" y="168" type="line"/>
      <point x="356" y="169" type="line"/>
      <point x="357" y="169" type="line"/>
      <point x="358" y="168" type="line"/>
      <point x="360" y="168" type="line"/>
      <point x="362" y="166" type="line"/>
      <point x="364" y="165" type="line"/>
    </contour>
    <contour>
      <point x="641" y="146" type="line"/>
      <point x="641" y="147" type="line"/>
      <point x="642" y="148" type="line"/>
      <point x="642" y="150" type="line"/>
      <point x="644" y="152" type="line"/>
      <point x="645" y="154" type="line"/>
      <point x="644" y="151" type="line"/>
      <point x="643" y="148" type="line"/>
      <point x="642" y="147" type="line"/>
    </contour>
  </outline>
</glyph>
<glyph name="nine" format="1">
  <advance width="1020"/>
  <unicode hex="0039"/>
  <outline>
    <contour>
      <point x="600" y="-160" type="line"/>
      <point x="613" y="-160" type="line"/>
      <point x="638" y="-159" type="line"/>
      <point x="662" y="-158" type="line"/>
      <point x="685" y="-155" type="line"/>
      <point x="708" y="-151" type="line"/>
      <point x="730" y="-146" type="line"/>
      <point x="752" y="-140" type="line"/>
      <point x="773" y="-133" type="line"/>
      <point x="794" y="-124" type="line"/>
      <point x="814" y="-114" type="line"/>
      <point x="833" y="-102" type="line"/>
      <point x="851" y="-89" type="line"/>
      <point x="868" y="-76" type="line"/>
      <point x="883" y="-61" type="line"/>
      <point x="889" y="-54" type="line" smooth="yes"/>
      <point x="892" y="-52"/>
      <point x="895" y="-48"/>
      <point x="897" y="-45" type="curve" smooth="yes"/>
      <point x="910" y="-29" type="line"/>
      <point x="921" y="-13" type="line"/>
      <point x="930" y="4" type="line"/>
      <point x="938" y="20" type="line"/>
      <point x="945" y="36" type="line"/>
      <point x="951" y="52" type="line"/>
      <point x="955" y="67" type="line"/>
      <point x="959" y="82" type="line"/>
      <point x="962" y="96" type="line"/>
      <point x="965" y="110" type="line"/>
      <point x="966" y="123" type="line"/>
      <point x="968" y="135" type="line"/>
      <point x="969" y="147" type="line"/>
      <point x="969" y="158" type="line"/>
      <point x="970" y="168" type="line"/>
      <point x="970" y="178" type="line"/>
      <point x="970" y="186" type="line"/>
      <point x="970" y="193" type="line"/>
      <point x="970" y="200" type="line"/>
      <point x="970" y="600" type="line"/>
      <point x="970" y="607" type="line"/>
      <point x="970" y="615" type="line"/>
      <point x="970" y="624" type="line"/>
      <point x="970" y="634" type="line"/>
      <point x="969" y="645" type="line"/>
      <point x="968" y="657" type="line"/>
      <point x="967" y="669" type="line"/>
      <point x="966" y="682" type="line"/>
      <point x="964" y="695" type="line"/>
      <point x="961" y="710" type="line"/>
      <point x="958" y="725" type="line"/>
      <point x="953" y="740" type="line"/>
      <point x="948" y="756" type="line"/>
      <point x="942" y="772" type="line"/>
      <point x="934" y="789" type="line"/>
      <point x="925" y="805" type="line"/>
      <point x="915" y="822" type="line"/>
      <point x="903" y="838" type="line"/>
      <point x="897" y="845" type="line" smooth="yes"/>
      <point x="895" y="848"/>
      <point x="892" y="852"/>
      <point x="889" y="854" type="curve" smooth="yes"/>
      <point x="875" y="869" type="line"/>
      <point x="859" y="883" type="line"/>
      <point x="841" y="896" type="line"/>
      <point x="823" y="908" type="line"/>
      <point x="804" y="919" type="line"/>
      <point x="784" y="928" type="line"/>
      <point x="764" y="936" type="line"/>
      <point x="743" y="943" type="line"/>
      <point x="722" y="948" type="line"/>
      <point x="700" y="953" type="line"/>
      <point x="677" y="956" type="line"/>
      <point x="654" y="958" type="line"/>
      <point x="631" y="960" type="line"/>
      <point x="613" y="960" type="line" smooth="yes"/>
      <point x="612" y="960"/>
      <point x="611" y="960"/>
      <point x="610" y="960" type="curve" smooth="yes"/>
      <point x="403" y="960" type="line"/>
      <point x="395" y="960" type="line"/>
      <point x="386" y="960" type="line"/>
      <point x="376" y="960" type="line"/>
      <point x="365" y="959" type="line"/>
      <point x="353" y="958" type="line"/>
      <point x="341" y="957" type="line"/>
      <point x="328" y="956" type="line"/>
      <point x="315" y="954" type="line"/>
      <point x="300" y="951" type="line"/>
      <point x="285" y="948" type="line"/>
      <point x="270" y="943" type="line"/>
      <point x="254" y="938" type="line"/>
      <point x="238" y="932" type="line"/>
      <point x="221" y="924" type="line"/>
      <point x="205" y="915" type="line"/>
      <point x="188" y="905" type="line"/>
      <point x="172" y="893" type="line"/>
      <point x="165" y="887" type="line" smooth="yes"/>
      <point x="162" y="885"/>
      <point x="158" y="882"/>
      <point x="156" y="879" type="curve" smooth="yes"/>
      <point x="141" y="865" type="line"/>
      <point x="127" y="849" type="line"/>
      <point x="114" y="831" type="line"/>
      <point x="102" y="813" type="line"/>
      <point x="91" y="794" type="line"/>
      <point x="82" y="774" type="line"/>
      <point x="74" y="754" type="line"/>
      <point x="67" y="733" type="line"/>
      <point x="62" y="712" type="line"/>
      <point x="57" y="690" type="line"/>
      <point x="54" y="667" type="line"/>
      <point x="52" y="644" type="line"/>
      <point x="50" y="621" type="line"/>
      <point x="50" y="600" type="line"/>
      <point x="50" y="593" type="line"/>
      <point x="50" y="585" type="line"/>
      <point x="50" y="576" type="line"/>
      <point x="50" y="566" type="line"/>
      <point x="51" y="555" type="line"/>
      <point x="52" y="543" type="line"/>
      <point x="53" y="531" type="line"/>
      <point x="54" y="518" type="line"/>
      <point x="56" y="505" type="line"/>
      <point x="59" y="490" type="line"/>
      <point x="62" y="475" type="line"/>
      <point x="67" y="460" type="line"/>
      <point x="72" y="444" type="line"/>
      <point x="78" y="428" type="line"/>
      <point x="86" y="411" type="line"/>
      <point x="95" y="395" type="line"/>
      <point x="105" y="378" type="line"/>
      <point x="117" y="362" type="line"/>
      <point x="123" y="355" type="line" smooth="yes"/>
      <point x="125" y="352"/>
      <point x="128" y="348"/>
      <point x="131" y="346" type="curve" smooth="yes"/>
      <point x="136" y="341" type="line"/>
      <point x="84" y="313"/>
      <point x="49" y="258"/>
      <point x="50" y="197" type="curve" smooth="yes"/>
      <point x="51" y="172" type="line"/>
      <point x="52" y="148" type="line"/>
      <point x="55" y="125" type="line"/>
      <point x="59" y="102" type="line"/>
      <point x="64" y="80" type="line"/>
      <point x="70" y="58" type="line"/>
      <point x="77" y="37" type="line"/>
      <point x="86" y="16" type="line"/>
      <point x="96" y="-4" type="line"/>
      <point x="108" y="-23" type="line"/>
      <point x="121" y="-41" type="line"/>
      <point x="134" y="-58" type="line"/>
      <point x="149" y="-73" type="line"/>
      <point x="156" y="-79" type="line" smooth="yes"/>
      <point x="158" y="-82"/>
      <point x="162" y="-85"/>
      <point x="165" y="-87" type="curve" smooth="yes"/>
      <point x="181" y="-100" type="line"/>
      <point x="197" y="-111" type="line"/>
      <point x="214" y="-120" type="line"/>
      <point x="230" y="-128" type="line"/>
      <point x="246" y="-135" type="line"/>
      <point x="262" y="-141" type="line"/>
      <point x="277" y="-145" type="line"/>
      <point x="292" y="-149" type="line"/>
      <point x="306" y="-152" type="line"/>
      <point x="320" y="-155" type="line"/>
      <point x="333" y="-156" type="line"/>
      <point x="345" y="-158" type="line"/>
      <point x="357" y="-159" type="line"/>
      <point x="368" y="-159" type="line"/>
      <point x="378" y="-160" type="line"/>
      <point x="388" y="-160" type="line"/>
      <point x="396" y="-160" type="line"/>
      <point x="403" y="-160" type="line"/>
    </contour>
    <contour>
      <point x="376" y="649" type="line"/>
      <point x="377" y="652" type="line"/>
      <point x="378" y="653" type="line"/>
      <point x="379" y="654" type="line"/>
      <point x="379" y="653" type="line"/>
      <point x="378" y="652" type="line"/>
      <point x="378" y="650" type="line"/>
      <point x="376" y="648" type="line"/>
      <point x="375" y="646" type="line"/>
    </contour>
    <contour>
      <point x="638" y="559" type="line"/>
      <point x="613" y="560" type="line"/>
      <point x="600" y="560" type="line"/>
      <point x="410" y="560" type="line"/>
      <point x="395" y="560" type="line"/>
      <point x="385" y="561" type="line"/>
      <point x="377" y="562" type="line"/>
      <point x="371" y="563" type="line"/>
      <point x="371" y="563" type="line"/>
      <point x="371" y="566" type="line"/>
      <point x="370" y="570" type="line"/>
      <point x="370" y="574" type="line"/>
      <point x="370" y="578" type="line"/>
      <point x="370" y="583" type="line"/>
      <point x="370" y="588" type="line"/>
      <point x="370" y="594" type="line"/>
      <point x="370" y="600" type="line"/>
      <point x="370" y="615" type="line"/>
      <point x="371" y="625" type="line"/>
      <point x="372" y="633" type="line"/>
      <point x="373" y="639" type="line"/>
      <point x="373" y="639" type="line"/>
      <point x="376" y="639" type="line"/>
      <point x="380" y="640" type="line"/>
      <point x="384" y="640" type="line"/>
      <point x="388" y="640" type="line"/>
      <point x="393" y="640" type="line"/>
      <point x="398" y="640" type="line"/>
      <point x="404" y="640" type="line"/>
      <point x="608" y="640" type="line"/>
      <point x="625" y="640" type="line"/>
      <point x="635" y="639" type="line"/>
      <point x="643" y="638" type="line"/>
      <point x="649" y="637" type="line"/>
      <point x="649" y="637" type="line"/>
      <point x="649" y="634" type="line"/>
      <point x="650" y="630" type="line"/>
      <point x="650" y="626" type="line"/>
      <point x="650" y="622" type="line"/>
      <point x="650" y="617" type="line"/>
      <point x="650" y="612" type="line"/>
      <point x="650" y="606" type="line"/>
      <point x="650" y="600" type="line"/>
      <point x="650" y="559" type="line"/>
    </contour>
    <contour>
      <point x="663" y="631" type="line"/>
      <point x="662" y="632" type="line"/>
      <point x="660" y="632" type="line"/>
      <point x="658" y="634" type="line"/>
      <point x="656" y="635" type="line"/>
      <point x="659" y="634" type="line"/>
      <point x="662" y="633" type="line"/>
      <point x="663" y="632" type="line"/>
      <point x="664" y="631" type="line"/>
    </contour>
    <contour>
      <point x="361" y="566" type="line"/>
      <point x="358" y="567" type="line"/>
      <point x="357" y="568" type="line"/>
      <point x="356" y="569" type="line"/>
      <point x="357" y="569" type="line"/>
      <point x="358" y="568" type="line"/>
      <point x="360" y="568" type="line"/>
      <point x="362" y="566" type="line"/>
      <point x="364" y="565" type="line"/>
    </contour>
    <contour>
      <point x="647" y="246" type="line"/>
      <point x="646" y="248" type="line"/>
      <point x="646" y="249" type="line"/>
      <point x="646" y="250" type="line"/>
      <point x="646" y="251" type="line"/>
      <point x="646" y="251" type="line"/>
      <point x="646" y="250" type="line"/>
      <point x="647" y="249" type="line"/>
      <point x="647" y="247" type="line"/>
      <point x="648" y="245" type="line"/>
    </contour>
    <contour>
      <point x="607" y="160" type="line"/>
      <point x="600" y="160" type="line"/>
      <point x="403" y="160" type="line"/>
      <point x="397" y="160" type="line"/>
      <point x="391" y="160" type="line"/>
      <point x="386" y="160" type="line"/>
      <point x="381" y="160" type="line"/>
      <point x="376" y="161" type="line"/>
      <point x="373" y="161" type="line"/>
      <point x="373" y="163" type="line"/>
      <point x="372" y="168" type="line"/>
      <point x="371" y="175" type="line"/>
      <point x="370" y="183" type="line"/>
      <point x="370" y="192" type="line"/>
      <point x="370" y="203" type="line" smooth="yes"/>
      <point x="370" y="216"/>
      <point x="368" y="229"/>
      <point x="364" y="242" type="curve"/>
      <point x="366" y="242" type="line"/>
      <point x="389" y="240" type="line"/>
      <point x="410" y="240" type="line"/>
      <point x="600" y="240" type="line"/>
      <point x="607" y="240" type="line"/>
      <point x="618" y="240" type="line"/>
      <point x="627" y="240" type="line"/>
      <point x="635" y="239" type="line"/>
      <point x="642" y="238" type="line"/>
      <point x="647" y="237" type="line"/>
      <point x="649" y="237" type="line"/>
      <point x="649" y="234" type="line"/>
      <point x="650" y="229" type="line"/>
      <point x="650" y="224" type="line"/>
      <point x="650" y="219" type="line"/>
      <point x="650" y="213" type="line"/>
      <point x="650" y="207" type="line"/>
      <point x="650" y="200" type="line" smooth="yes"/>
      <point x="650" y="200" type="line"/>
      <point x="650" y="193" type="line"/>
      <point x="650" y="187" type="line"/>
      <point x="650" y="181" type="line"/>
      <point x="650" y="176" type="line"/>
      <point x="650" y="171" type="line"/>
      <point x="649" y="166" type="line"/>
      <point x="649" y="163" type="line"/>
      <point x="647" y="163" type="line"/>
      <point x="642" y="162" type="line"/>
      <point x="635" y="161" type="line"/>
      <point x="627" y="160" type="line"/>
      <point x="618" y="160" type="line"/>
    </contour>
    <contour>
      <point x="363" y="163" type="line"/>
      <point x="361" y="163" type="line"/>
      <point x="360" y="164" type="line"/>
      <point x="359" y="164" type="line"/>
      <point x="359" y="164" type="line"/>
      <point x="360" y="164" type="line"/>
      <point x="361" y="164" type="line"/>
      <point x="362" y="164" type="line"/>
      <point x="364" y="163" type="line"/>
      <point x="365" y="162" type="line"/>
    </contour>
    <contour>
      <point x="646" y="149" type="line"/>
      <point x="646" y="150" type="line"/>
      <point x="646" y="151" type="line"/>
      <point x="646" y="152" type="line"/>
      <point x="647" y="154" type="line"/>
      <point x="648" y="155" type="line"/>
      <point x="647" y="153" type="line"/>
      <point x="647" y="151" type="line"/>
      <point x="646" y="150" type="line"/>
      <point x="646" y="149" type="line"/>
    </contour>
  </outline>
</glyph>
<glyph name="semicolon" format="1">
  <advance width="520"/>
  <unicode hex="003B"/>
  <outline>
    <contour>
      <point x="310" y="423" type="curve" smooth="yes"/>
      <point x="396" y="423"/>
      <point x="470" y="497"/>
      <point x="470" y="583" type="curve" smooth="yes"/>
      <point x="470" y="592" type="line" smooth="yes"/>
      <point x="470" y="678"/>
      <point x="396" y="752"/>
      <point x="310" y="752" type="curve" smooth="yes"/>
      <point x="224" y="752"/>
      <point x="150" y="678"/>
      <point x="150" y="592" type="curve" smooth="yes"/>
      <point x="150" y="583" type="line" smooth="yes"/>
      <point x="150" y="497"/>
      <point x="224" y="423"/>
    </contour>
    <contour>
      <point x="210" y="-168" type="curve" smooth="yes"/>
      <point x="310" y="-168" type="line" smooth="yes"/>
      <point x="398" y="-168"/>
      <point x="470" y="-96"/>
      <point x="470" y="-8" type="curve" smooth="yes"/>
      <point x="470" y="192" type="line" smooth="yes"/>
      <point x="470" y="278"/>
      <point x="396" y="352"/>
      <point x="310" y="352" type="curve" smooth="yes"/>
      <point x="224" y="352"/>
      <point x="150" y="278"/>
      <point x="150" y="192" type="curve" smooth="yes"/>
      <point x="150" y="140" type="line"/>
      <point x="92" y="115"/>
      <point x="50" y="57"/>
      <point x="50" y="-8" type="curve" smooth="yes"/>
      <point x="50" y="-94"/>
      <point x="124" y="-168"/>
    </contour>
  </outline>
</glyph>
<glyph name="less" format="1">
  <advance width="810"/>
  <unicode hex="003C"/>
  <outline>
    <contour>
      <point x="744" y="31" type="curve" smooth="yes"/>
      <point x="783" y="109"/>
      <point x="750" y="207"/>
      <point x="673" y="246" type="curve" smooth="yes"/>
      <point x="559" y="303" type="line"/>
      <point x="664" y="355" type="line"/>
      <point x="673" y="360" type="line" smooth="yes"/>
      <point x="750" y="399"/>
      <point x="783" y="497"/>
      <point x="744" y="575" type="curve" smooth="yes"/>
      <point x="705" y="652"/>
      <point x="607" y="685"/>
      <point x="529" y="646" type="curve" smooth="yes"/>
      <point x="147" y="455" type="line"/>
      <point x="138" y="451" type="line" smooth="yes"/>
      <point x="89" y="426"/>
      <point x="50" y="362"/>
      <point x="50" y="307" type="curve" smooth="yes"/>
      <point x="50" y="299" type="line" smooth="yes"/>
      <point x="50" y="244"/>
      <point x="89" y="180"/>
      <point x="138" y="155" type="curve" smooth="yes"/>
      <point x="521" y="-36" type="line"/>
      <point x="529" y="-40" type="line" smooth="yes"/>
      <point x="607" y="-79"/>
      <point x="705" y="-46"/>
    </contour>
  </outline>
</glyph>
<glyph name="greater" format="1">
  <advance width="810"/>
  <unicode hex="003E"/>
  <outline>
    <contour>
      <point x="281" y="-23" type="curve" smooth="yes"/>
      <point x="663" y="168" type="line"/>
      <point x="672" y="172" type="line" smooth="yes"/>
      <point x="721" y="197"/>
      <point x="760" y="261"/>
      <point x="760" y="316" type="curve"/>
      <point x="760" y="324" type="line"/>
      <point x="760" y="379"/>
      <point x="721" y="443"/>
      <point x="672" y="468" type="curve" smooth="yes"/>
      <point x="289" y="659" type="line"/>
      <point x="281" y="663" type="line" smooth="yes"/>
      <point x="203" y="702"/>
      <point x="105" y="669"/>
      <point x="66" y="592" type="curve" smooth="yes"/>
      <point x="27" y="514"/>
      <point x="60" y="416"/>
      <point x="137" y="377" type="curve" smooth="yes"/>
      <point x="251" y="320" type="line"/>
      <point x="146" y="268" type="line"/>
      <point x="137" y="263" type="line" smooth="yes"/>
      <point x="60" y="224"/>
      <point x="27" y="126"/>
      <point x="66" y="48" type="curve" smooth="yes"/>
      <point x="105" y="-29"/>
      <point x="203" y="-62"/>
    </contour>
  </outline>
</glyph>
<glyph name="question" format="1">
  <advance width="919"/>
  <unicode hex="003F"/>
  <outline>
    <contour>
      <point x="409" y="-160" type="curve" smooth="yes"/>
      <point x="495" y="-160"/>
      <point x="569" y="-86"/>
      <point x="569" y="0" type="curve" smooth="yes"/>
      <point x="569" y="11" type="line" smooth="yes"/>
      <point x="569" y="46"/>
      <point x="557" y="79"/>
      <point x="537" y="105" type="curve"/>
      <point x="557" y="132"/>
      <point x="569" y="165"/>
      <point x="569" y="200" type="curve" smooth="yes"/>
      <point x="569" y="241" type="line"/>
      <point x="574" y="241" type="line"/>
      <point x="587" y="243" type="line"/>
      <point x="600" y="245" type="line"/>
      <point x="613" y="247" type="line"/>
      <point x="628" y="250" type="line"/>
      <point x="642" y="254" type="line"/>
      <point x="658" y="259" type="line"/>
      <point x="674" y="265" type="line"/>
      <point x="690" y="272" type="line"/>
      <point x="706" y="280" type="line"/>
      <point x="722" y="289" type="line"/>
      <point x="739" y="300" type="line"/>
      <point x="755" y="313" type="line"/>
      <point x="770" y="327" type="line"/>
      <point x="785" y="342" type="line"/>
      <point x="799" y="359" type="line"/>
      <point x="811" y="377" type="line" smooth="yes"/>
      <point x="813" y="380"/>
      <point x="816" y="384"/>
      <point x="817" y="387" type="curve" smooth="yes"/>
      <point x="823" y="396" type="line"/>
      <point x="833" y="416" type="line"/>
      <point x="842" y="437" type="line"/>
      <point x="849" y="458" type="line"/>
      <point x="855" y="480" type="line"/>
      <point x="860" y="502" type="line"/>
      <point x="864" y="525" type="line"/>
      <point x="867" y="548" type="line"/>
      <point x="868" y="572" type="line"/>
      <point x="869" y="597" type="line"/>
      <point x="869" y="607" type="line"/>
      <point x="869" y="614" type="line"/>
      <point x="869" y="623" type="line"/>
      <point x="869" y="633" type="line"/>
      <point x="868" y="643" type="line"/>
      <point x="867" y="654" type="line"/>
      <point x="866" y="666" type="line"/>
      <point x="865" y="678" type="line"/>
      <point x="863" y="691" type="line"/>
      <point x="861" y="705" type="line"/>
      <point x="857" y="719" type="line"/>
      <point x="853" y="734" type="line"/>
      <point x="849" y="750" type="line"/>
      <point x="843" y="765" type="line"/>
      <point x="836" y="781" type="line"/>
      <point x="827" y="798" type="line"/>
      <point x="818" y="814" type="line"/>
      <point x="807" y="830" type="line"/>
      <point x="794" y="846" type="line"/>
      <point x="780" y="862" type="line"/>
      <point x="765" y="876" type="line"/>
      <point x="748" y="890" type="line" smooth="yes"/>
      <point x="745" y="892"/>
      <point x="741" y="895"/>
      <point x="738" y="897" type="curve" smooth="yes"/>
      <point x="730" y="902" type="line"/>
      <point x="711" y="914" type="line"/>
      <point x="691" y="924" type="line"/>
      <point x="670" y="933" type="line"/>
      <point x="649" y="940" type="line"/>
      <point x="627" y="946" type="line"/>
      <point x="605" y="951" type="line"/>
      <point x="582" y="955" type="line"/>
      <point x="559" y="958" type="line"/>
      <point x="535" y="959" type="line"/>
      <point x="510" y="960" type="line"/>
      <point x="497" y="960" type="line"/>
      <point x="408" y="960" type="line"/>
      <point x="394" y="960" type="line"/>
      <point x="376" y="958" type="line"/>
      <point x="365" y="957" type="line"/>
      <point x="354" y="955" type="line"/>
      <point x="342" y="953" type="line"/>
      <point x="330" y="951" type="line"/>
      <point x="316" y="948" type="line"/>
      <point x="303" y="944" type="line"/>
      <point x="288" y="940" type="line"/>
      <point x="273" y="934" type="line"/>
      <point x="257" y="928" type="line"/>
      <point x="241" y="920" type="line"/>
      <point x="224" y="912" type="line"/>
      <point x="207" y="902" type="line"/>
      <point x="190" y="890" type="line"/>
      <point x="173" y="877" type="line"/>
      <point x="157" y="863" type="line"/>
      <point x="141" y="846" type="line"/>
      <point x="125" y="828" type="line"/>
      <point x="110" y="809" type="line" smooth="yes"/>
      <point x="109" y="806"/>
      <point x="106" y="801"/>
      <point x="104" y="798" type="curve" smooth="yes"/>
      <point x="97" y="787" type="line"/>
      <point x="85" y="764" type="line"/>
      <point x="75" y="740" type="line" smooth="yes"/>
      <point x="73" y="737"/>
      <point x="72" y="732"/>
      <point x="71" y="729" type="curve" smooth="yes"/>
      <point x="66" y="715" type="line"/>
      <point x="59" y="688" type="line"/>
      <point x="54" y="661" type="line"/>
      <point x="51" y="633" type="line"/>
      <point x="50" y="604" type="line" smooth="yes"/>
      <point x="47" y="518"/>
      <point x="119" y="442"/>
      <point x="205" y="439" type="curve" smooth="yes"/>
      <point x="223" y="439"/>
      <point x="240" y="441"/>
      <point x="256" y="446" type="curve"/>
      <point x="251" y="431"/>
      <point x="249" y="415"/>
      <point x="249" y="399" type="curve" smooth="yes"/>
      <point x="249" y="200" type="line" smooth="yes"/>
      <point x="249" y="165"/>
      <point x="261" y="132"/>
      <point x="281" y="106" type="curve"/>
      <point x="261" y="79"/>
      <point x="249" y="46"/>
      <point x="249" y="11" type="curve" smooth="yes"/>
      <point x="249" y="0" type="line" smooth="yes"/>
      <point x="249" y="-86"/>
      <point x="323" y="-160"/>
    </contour>
    <contour>
      <point x="546" y="645" type="line"/>
      <point x="545" y="647" type="line"/>
      <point x="545" y="648" type="line"/>
      <point x="544" y="649" type="line"/>
      <point x="544" y="650" type="line"/>
      <point x="545" y="649" type="line"/>
      <point x="545" y="649" type="line"/>
      <point x="546" y="648" type="line"/>
      <point x="546" y="646" type="line"/>
      <point x="547" y="643" type="line"/>
    </contour>
    <contour>
      <point x="370" y="594" type="curve" smooth="yes"/>
      <point x="370" y="602" type="line"/>
      <point x="370" y="609" type="line"/>
      <point x="370" y="614" type="line"/>
      <point x="371" y="617" type="line"/>
      <point x="374" y="627" type="line"/>
      <point x="376" y="630" type="line"/>
      <point x="377" y="631" type="line"/>
      <point x="380" y="632" type="line"/>
      <point x="382" y="633" type="line"/>
      <point x="385" y="635" type="line"/>
      <point x="388" y="636" type="line"/>
      <point x="391" y="637" type="line"/>
      <point x="394" y="638" type="line"/>
      <point x="397" y="638" type="line"/>
      <point x="400" y="639" type="line"/>
      <point x="403" y="639" type="line"/>
      <point x="403" y="639" type="line"/>
      <point x="405" y="640" type="line"/>
      <point x="408" y="640" type="line"/>
      <point x="497" y="640" type="line"/>
      <point x="504" y="640" type="line"/>
      <point x="515" y="640" type="line"/>
      <point x="525" y="640" type="line"/>
      <point x="533" y="639" type="line"/>
      <point x="539" y="638" type="line"/>
      <point x="544" y="637" type="line"/>
      <point x="548" y="637" type="line"/>
      <point x="548" y="637" type="line"/>
      <point x="548" y="633" type="line"/>
      <point x="548" y="628" type="line"/>
      <point x="549" y="624" type="line"/>
      <point x="549" y="618" type="line"/>
      <point x="549" y="613" type="line"/>
      <point x="549" y="606" type="line"/>
      <point x="549" y="603" type="line"/>
      <point x="549" y="592" type="line"/>
      <point x="549" y="582" type="line"/>
      <point x="548" y="575" type="line"/>
      <point x="547" y="568" type="line"/>
      <point x="546" y="563" type="line"/>
      <point x="546" y="560" type="line"/>
      <point x="542" y="560" type="line"/>
      <point x="538" y="559" type="line"/>
      <point x="533" y="559" type="line"/>
      <point x="528" y="559" type="line"/>
      <point x="522" y="559" type="line"/>
      <point x="516" y="559" type="line"/>
      <point x="419" y="559" type="line"/>
      <point x="409" y="559" type="line" smooth="yes"/>
      <point x="393" y="559"/>
      <point x="377" y="557"/>
      <point x="363" y="552" type="curve"/>
      <point x="367" y="566"/>
      <point x="369" y="580"/>
    </contour>
    <contour>
      <point x="375" y="630" type="line"/>
      <point x="376" y="630" type="line"/>
      <point x="374" y="628" type="line"/>
      <point x="375" y="629" type="line"/>
    </contour>
    <contour>
      <point x="371" y="623" type="line"/>
      <point x="371" y="624" type="line"/>
      <point x="371" y="625" type="line"/>
      <point x="371" y="625" type="line"/>
      <point x="372" y="626" type="line"/>
      <point x="373" y="627" type="line"/>
      <point x="374" y="628" type="line"/>
      <point x="375" y="629" type="line"/>
      <point x="374" y="627" type="line"/>
    </contour>
    <contour>
      <point x="371" y="620" type="line"/>
      <point x="371" y="621" type="line"/>
      <point x="371" y="623" type="line"/>
      <point x="374" y="626" type="line"/>
    </contour>
    <contour>
      <point x="554" y="562" type="line"/>
      <point x="556" y="563" type="line"/>
      <point x="558" y="563" type="line"/>
      <point x="559" y="564" type="line"/>
      <point x="559" y="563" type="line"/>
      <point x="559" y="563" type="line"/>
      <point x="559" y="563" type="line"/>
      <point x="557" y="562" type="line"/>
      <point x="555" y="562" type="line"/>
      <point x="553" y="561" type="line"/>
    </contour>
  </outline>
</glyph>
<glyph name="at" format="1">
  <advance width="1020"/>
  <unicode hex="0040"/>
  <outline>
    <contour>
      <point x="412" y="-202" type="line"/>
      <point x="610" y="-202" type="line" smooth="yes"/>
      <point x="696" y="-202"/>
      <point x="770" y="-128"/>
      <point x="770" y="-42" type="curve" smooth="yes"/>
      <point x="770" y="-21"/>
      <point x="766" y="-1"/>
      <point x="758" y="18" type="curve"/>
      <point x="767" y="21" type="line"/>
      <point x="783" y="27" type="line"/>
      <point x="799" y="35" type="line"/>
      <point x="816" y="44" type="line"/>
      <point x="833" y="54" type="line"/>
      <point x="849" y="66" type="line"/>
      <point x="864" y="80" type="line"/>
      <point x="879" y="94" type="line"/>
      <point x="894" y="110" type="line"/>
      <point x="907" y="128" type="line"/>
      <point x="912" y="136" type="line" smooth="yes"/>
      <point x="914" y="139"/>
      <point x="917" y="143"/>
      <point x="918" y="146" type="curve" smooth="yes"/>
      <point x="929" y="165" type="line"/>
      <point x="938" y="185" type="line"/>
      <point x="946" y="205" type="line"/>
      <point x="953" y="226" type="line"/>
      <point x="958" y="247" type="line"/>
      <point x="963" y="269" type="line"/>
      <point x="966" y="292" type="line"/>
      <point x="968" y="315" type="line"/>
      <point x="970" y="338" type="line"/>
      <point x="970" y="359" type="line"/>
      <point x="970" y="548" type="line"/>
      <point x="970" y="558" type="line"/>
      <point x="970" y="566" type="line"/>
      <point x="970" y="574" type="line"/>
      <point x="970" y="583" type="line"/>
      <point x="969" y="593" type="line"/>
      <point x="969" y="604" type="line"/>
      <point x="968" y="616" type="line"/>
      <point x="967" y="628" type="line"/>
      <point x="965" y="641" type="line"/>
      <point x="963" y="655" type="line"/>
      <point x="960" y="669" type="line"/>
      <point x="957" y="684" type="line"/>
      <point x="952" y="699" type="line"/>
      <point x="947" y="715" type="line"/>
      <point x="940" y="732" type="line"/>
      <point x="932" y="748" type="line"/>
      <point x="923" y="765" type="line"/>
      <point x="913" y="781" type="line"/>
      <point x="901" y="797" type="line"/>
      <point x="887" y="813" type="line"/>
      <point x="873" y="828" type="line"/>
      <point x="857" y="842" type="line"/>
      <point x="849" y="848" type="line" smooth="yes"/>
      <point x="846" y="850"/>
      <point x="842" y="853"/>
      <point x="839" y="855" type="curve" smooth="yes"/>
      <point x="821" y="866" type="line"/>
      <point x="802" y="877" type="line"/>
      <point x="782" y="886" type="line"/>
      <point x="762" y="894" type="line"/>
      <point x="741" y="901" type="line"/>
      <point x="720" y="906" type="line"/>
      <point x="698" y="911" type="line"/>
      <point x="675" y="914" type="line"/>
      <point x="652" y="916" type="line"/>
      <point x="629" y="918" type="line"/>
      <point x="611" y="918" type="line" smooth="yes"/>
      <point x="610" y="918"/>
      <point x="609" y="918"/>
      <point x="608" y="918" type="curve" smooth="yes"/>
      <point x="418" y="918" type="line"/>
      <point x="405" y="918" type="line"/>
      <point x="380" y="917" type="line"/>
      <point x="357" y="916" type="line"/>
      <point x="333" y="913" type="line"/>
      <point x="310" y="909" type="line"/>
      <point x="288" y="905" type="line"/>
      <point x="266" y="898" type="line"/>
      <point x="245" y="891" type="line"/>
      <point x="224" y="882" type="line"/>
      <point x="205" y="872" type="line"/>
      <point x="186" y="861" type="line"/>
      <point x="177" y="855" type="line" smooth="yes"/>
      <point x="174" y="854"/>
      <point x="170" y="850"/>
      <point x="168" y="848" type="curve" smooth="yes"/>
      <point x="151" y="835" type="line"/>
      <point x="135" y="820" type="line"/>
      <point x="121" y="804" type="line"/>
      <point x="116" y="798" type="line" smooth="yes"/>
      <point x="114" y="795"/>
      <point x="110" y="791"/>
      <point x="109" y="788" type="curve" smooth="yes"/>
      <point x="98" y="772" type="line"/>
      <point x="88" y="755" type="line"/>
      <point x="80" y="739" type="line"/>
      <point x="73" y="723" type="line"/>
      <point x="67" y="707" type="line"/>
      <point x="63" y="691" type="line"/>
      <point x="59" y="676" type="line"/>
      <point x="56" y="662" type="line"/>
      <point x="54" y="649" type="line"/>
      <point x="53" y="636" type="line"/>
      <point x="51" y="623" type="line"/>
      <point x="51" y="612" type="line"/>
      <point x="50" y="601" type="line"/>
      <point x="50" y="591" type="line"/>
      <point x="50" y="582" type="line"/>
      <point x="50" y="573" type="line"/>
      <point x="50" y="566" type="line"/>
      <point x="50" y="562" type="line"/>
      <point x="50" y="168" type="line"/>
      <point x="50" y="158" type="line"/>
      <point x="50" y="150" type="line"/>
      <point x="50" y="142" type="line"/>
      <point x="50" y="133" type="line"/>
      <point x="51" y="123" type="line"/>
      <point x="51" y="112" type="line"/>
      <point x="52" y="100" type="line"/>
      <point x="53" y="88" type="line"/>
      <point x="55" y="75" type="line"/>
      <point x="57" y="61" type="line"/>
      <point x="60" y="47" type="line"/>
      <point x="63" y="32" type="line"/>
      <point x="68" y="17" type="line"/>
      <point x="73" y="1" type="line"/>
      <point x="80" y="-16" type="line"/>
      <point x="88" y="-32" type="line"/>
      <point x="97" y="-49" type="line"/>
      <point x="107" y="-65" type="line"/>
      <point x="119" y="-81" type="line"/>
      <point x="133" y="-97" type="line"/>
      <point x="147" y="-112" type="line"/>
      <point x="163" y="-126" type="line"/>
      <point x="171" y="-132" type="line" smooth="yes"/>
      <point x="174" y="-134"/>
      <point x="178" y="-137"/>
      <point x="181" y="-139" type="curve" smooth="yes"/>
      <point x="199" y="-150" type="line"/>
      <point x="218" y="-161" type="line"/>
      <point x="238" y="-170" type="line"/>
      <point x="258" y="-178" type="line"/>
      <point x="279" y="-185" type="line"/>
      <point x="300" y="-190" type="line"/>
      <point x="322" y="-195" type="line"/>
      <point x="345" y="-198" type="line"/>
      <point x="368" y="-200" type="line"/>
      <point x="391" y="-202" type="line"/>
    </contour>
  </outline>
</glyph>
<glyph name="B" format="1">
  <advance width="1020"/>
  <unicode hex="0042"/>
  <outline>
    <contour>
      <point x="399" y="-156" type="line" smooth="yes"/>
      <point x="400" y="-156"/>
      <point x="400" y="-156"/>
      <point x="400" y="-156" type="curve" smooth="yes"/>
      <point x="406" y="-156" type="line"/>
      <point x="613" y="-156" type="line"/>
      <point x="620" y="-156" type="line"/>
      <point x="629" y="-156" type="line"/>
      <point x="638" y="-156" type="line"/>
      <point x="648" y="-155" type="line"/>
      <point x="659" y="-155" type="line"/>
      <point x="671" y="-154" type="line"/>
      <point x="683" y="-152" type="line"/>
      <point x="696" y="-151" type="line"/>
      <point x="710" y="-148" type="line"/>
      <point x="724" y="-145" type="line"/>
      <point x="739" y="-142" type="line"/>
      <point x="754" y="-137" type="line"/>
      <point x="770" y="-131" type="line"/>
      <point x="787" y="-125" type="line"/>
      <point x="803" y="-117" type="line"/>
      <point x="820" y="-107" type="line"/>
      <point x="836" y="-97" type="line"/>
      <point x="852" y="-84" type="line"/>
      <point x="868" y="-70" type="line"/>
      <point x="883" y="-55" type="line"/>
      <point x="897" y="-39" type="line" smooth="yes"/>
      <point x="899" y="-36"/>
      <point x="902" y="-32"/>
      <point x="904" y="-29" type="curve" smooth="yes"/>
      <point x="910" y="-21" type="line"/>
      <point x="922" y="-2" type="line"/>
      <point x="932" y="18" type="line"/>
      <point x="941" y="39" type="line"/>
      <point x="949" y="61" type="line"/>
      <point x="956" y="83" type="line"/>
      <point x="961" y="105" type="line"/>
      <point x="965" y="128" type="line"/>
      <point x="968" y="152" type="line"/>
      <point x="969" y="176" type="line"/>
      <point x="970" y="201" type="line"/>
      <point x="970" y="211" type="line"/>
      <point x="970" y="218" type="line"/>
      <point x="970" y="226" type="line"/>
      <point x="970" y="236" type="line"/>
      <point x="969" y="246" type="line"/>
      <point x="969" y="257" type="line"/>
      <point x="968" y="269" type="line"/>
      <point x="966" y="281" type="line"/>
      <point x="965" y="294" type="line"/>
      <point x="962" y="308" type="line"/>
      <point x="959" y="322" type="line"/>
      <point x="955" y="337" type="line"/>
      <point x="951" y="352" type="line"/>
      <point x="945" y="368" type="line"/>
      <point x="938" y="384" type="line"/>
      <point x="930" y="400" type="line"/>
      <point x="926" y="407" type="line"/>
      <point x="934" y="422" type="line"/>
      <point x="943" y="443" type="line"/>
      <point x="950" y="464" type="line"/>
      <point x="956" y="486" type="line"/>
      <point x="961" y="508" type="line"/>
      <point x="965" y="531" type="line"/>
      <point x="968" y="554" type="line"/>
      <point x="969" y="578" type="line"/>
      <point x="970" y="603" type="line"/>
      <point x="970" y="613" type="line"/>
      <point x="970" y="620" type="line"/>
      <point x="970" y="629" type="line"/>
      <point x="970" y="638" type="line"/>
      <point x="969" y="649" type="line"/>
      <point x="968" y="660" type="line"/>
      <point x="967" y="672" type="line"/>
      <point x="966" y="684" type="line"/>
      <point x="964" y="697" type="line"/>
      <point x="962" y="711" type="line"/>
      <point x="958" y="725" type="line"/>
      <point x="954" y="740" type="line"/>
      <point x="949" y="755" type="line"/>
      <point x="944" y="771" type="line"/>
      <point x="936" y="787" type="line"/>
      <point x="928" y="803" type="line"/>
      <point x="918" y="820" type="line"/>
      <point x="907" y="836" type="line"/>
      <point x="894" y="852" type="line"/>
      <point x="880" y="867" type="line" smooth="yes"/>
      <point x="878" y="869"/>
      <point x="874" y="873"/>
      <point x="872" y="875" type="curve" smooth="yes"/>
      <point x="865" y="882" type="line"/>
      <point x="848" y="895" type="line"/>
      <point x="830" y="907" type="line"/>
      <point x="811" y="919" type="line"/>
      <point x="791" y="929" type="line"/>
      <point x="771" y="937" type="line"/>
      <point x="749" y="944" type="line"/>
      <point x="728" y="951" type="line"/>
      <point x="705" y="955" type="line"/>
      <point x="683" y="959" type="line"/>
      <point x="659" y="962" type="line"/>
      <point x="635" y="963" type="line"/>
      <point x="611" y="964" type="line"/>
      <point x="598" y="964" type="line"/>
      <point x="408" y="964" type="line"/>
      <point x="387" y="964" type="line"/>
      <point x="364" y="962" type="line"/>
      <point x="341" y="960" type="line"/>
      <point x="319" y="957" type="line"/>
      <point x="297" y="953" type="line"/>
      <point x="276" y="947" type="line"/>
      <point x="255" y="941" type="line"/>
      <point x="235" y="933" type="line"/>
      <point x="215" y="924" type="line"/>
      <point x="196" y="913" type="line"/>
      <point x="177" y="902" type="line" smooth="yes"/>
      <point x="175" y="900"/>
      <point x="170" y="897"/>
      <point x="168" y="895" type="curve" smooth="yes"/>
      <point x="160" y="889" type="line"/>
      <point x="144" y="875" type="line"/>
      <point x="129" y="860" type="line"/>
      <point x="116" y="844" type="line" smooth="yes"/>
      <point x="114" y="841"/>
      <point x="111" y="837"/>
      <point x="109" y="835" type="curve" smooth="yes"/>
      <point x="104" y="827" type="line"/>
      <point x="94" y="811" type="line"/>
      <point x="85" y="794" type="line"/>
      <point x="77" y="778" type="line"/>
      <point x="71" y="761" type="line"/>
      <point x="65" y="745" type="line"/>
      <point x="61" y="730" type="line"/>
      <point x="58" y="715" type="line"/>
      <point x="55" y="701" type="line"/>
      <point x="54" y="687" type="line"/>
      <point x="52" y="675" type="line"/>
      <point x="51" y="662" type="line"/>
      <point x="51" y="651" type="line"/>
      <point x="50" y="641" type="line"/>
      <point x="50" y="631" type="line"/>
      <point x="50" y="622" type="line"/>
      <point x="50" y="615" type="line"/>
      <point x="50" y="608" type="line"/>
      <point x="50" y="598" type="line"/>
      <point x="50" y="202" type="line"/>
      <point x="50" y="181" type="line"/>
      <point x="52" y="158" type="line"/>
      <point x="54" y="135" type="line"/>
      <point x="57" y="113" type="line"/>
      <point x="61" y="91" type="line"/>
      <point x="67" y="70" type="line"/>
      <point x="73" y="49" type="line"/>
      <point x="81" y="29" type="line"/>
      <point x="90" y="9" type="line"/>
      <point x="101" y="-10" type="line"/>
      <point x="112" y="-29" type="line" smooth="yes"/>
      <point x="114" y="-31"/>
      <point x="117" y="-36"/>
      <point x="119" y="-38" type="curve" smooth="yes"/>
      <point x="125" y="-46" type="line"/>
      <point x="139" y="-62" type="line"/>
      <point x="154" y="-77" type="line"/>
      <point x="170" y="-90" type="line" smooth="yes"/>
      <point x="173" y="-92"/>
      <point x="177" y="-95"/>
      <point x="179" y="-97" type="curve" smooth="yes"/>
      <point x="187" y="-102" type="line"/>
      <point x="203" y="-112" type="line"/>
      <point x="220" y="-121" type="line"/>
      <point x="236" y="-129" type="line"/>
      <point x="253" y="-135" type="line"/>
      <point x="269" y="-141" type="line"/>
      <point x="284" y="-145" type="line"/>
      <point x="299" y="-148" type="line"/>
      <point x="313" y="-151" type="line"/>
      <point x="327" y="-152" type="line"/>
      <point x="339" y="-154" type="line"/>
      <point x="352" y="-155" type="line"/>
      <point x="363" y="-155" type="line"/>
      <point x="373" y="-156" type="line"/>
      <point x="383" y="-156" type="line"/>
      <point x="392" y="-156" type="line"/>
    </contour>
    <contour>
      <point x="647" y="649" type="line"/>
      <point x="647" y="651" type="line"/>
      <point x="646" y="652" type="line"/>
      <point x="646" y="654" type="line"/>
      <point x="646" y="654" type="line"/>
      <point x="646" y="654" type="line"/>
      <point x="646" y="654" type="line"/>
      <point x="647" y="653" type="line"/>
      <point x="647" y="651" type="line"/>
      <point x="648" y="649" type="line"/>
      <point x="648" y="648" type="line"/>
    </contour>
    <contour>
      <point x="600" y="564" type="line"/>
      <point x="370" y="564" type="line"/>
      <point x="370" y="598" type="line"/>
      <point x="370" y="608" type="line"/>
      <point x="370" y="615" type="line"/>
      <point x="370" y="620" type="line"/>
      <point x="370" y="626" type="line"/>
      <point x="370" y="630" type="line"/>
      <point x="370" y="635" type="line"/>
      <point x="370" y="639" type="line"/>
      <point x="370" y="641" type="line"/>
      <point x="374" y="642" type="line"/>
      <point x="383" y="643" type="line"/>
      <point x="393" y="644" type="line"/>
      <point x="408" y="644" type="line"/>
      <point x="598" y="644" type="line"/>
      <point x="605" y="644" type="line"/>
      <point x="616" y="644" type="line"/>
      <point x="626" y="644" type="line"/>
      <point x="634" y="643" type="line"/>
      <point x="640" y="642" type="line"/>
      <point x="646" y="641" type="line"/>
      <point x="649" y="641" type="line"/>
      <point x="649" y="639" type="line"/>
      <point x="649" y="634" type="line"/>
      <point x="650" y="629" type="line"/>
      <point x="650" y="624" type="line"/>
      <point x="650" y="619" type="line"/>
      <point x="650" y="612" type="line"/>
      <point x="650" y="609" type="line"/>
      <point x="650" y="598" type="line"/>
      <point x="650" y="588" type="line"/>
      <point x="649" y="580" type="line"/>
      <point x="648" y="574" type="line"/>
      <point x="647" y="569" type="line"/>
      <point x="647" y="565" type="line"/>
      <point x="647" y="565" type="line"/>
      <point x="643" y="565" type="line"/>
      <point x="638" y="565" type="line"/>
      <point x="634" y="564" type="line"/>
      <point x="628" y="564" type="line"/>
      <point x="623" y="564" type="line"/>
      <point x="616" y="564" type="line"/>
      <point x="610" y="564" type="line" smooth="yes"/>
      <point x="609" y="564"/>
      <point x="609" y="564"/>
      <point x="608" y="564" type="curve"/>
    </contour>
    <contour>
      <point x="357" y="637" type="line"/>
      <point x="360" y="639" type="line"/>
      <point x="361" y="639" type="line"/>
      <point x="360" y="638" type="line"/>
    </contour>
    <contour>
      <point x="354" y="635" type="line"/>
      <point x="353" y="635" type="line"/>
      <point x="353" y="636" type="line"/>
      <point x="355" y="637" type="line"/>
      <point x="358" y="638" type="line"/>
      <point x="359" y="638" type="line"/>
      <point x="355" y="636" type="line"/>
    </contour>
    <contour>
      <point x="655" y="567" type="line"/>
      <point x="657" y="568" type="line"/>
      <point x="658" y="568" type="line"/>
      <point x="659" y="569" type="line"/>
      <point x="660" y="569" type="line"/>
      <point x="659" y="568" type="line"/>
      <point x="659" y="568" type="line"/>
      <point x="658" y="567" type="line"/>
      <point x="656" y="567" type="line"/>
      <point x="653" y="566" type="line"/>
    </contour>
    <contour>
      <point x="394" y="164" type="line"/>
      <point x="388" y="164" type="line"/>
      <point x="384" y="164" type="line"/>
      <point x="379" y="164" type="line"/>
      <point x="375" y="164" type="line"/>
      <point x="373" y="164" type="line"/>
      <point x="372" y="168" type="line"/>
      <point x="371" y="177" type="line"/>
      <point x="370" y="187" type="line"/>
      <point x="370" y="202" type="line"/>
      <point x="370" y="244" type="line"/>
      <point x="600" y="244" type="line"/>
      <point x="607" y="244" type="line"/>
      <point x="609" y="244" type="line"/>
      <point x="610" y="244" type="line" smooth="yes"/>
      <point x="611" y="244" type="line"/>
      <point x="618" y="244" type="line"/>
      <point x="627" y="244" type="line"/>
      <point x="635" y="243" type="line"/>
      <point x="642" y="242" type="line"/>
      <point x="647" y="241" type="line"/>
      <point x="649" y="241" type="line"/>
      <point x="649" y="238" type="line"/>
      <point x="650" y="233" type="line"/>
      <point x="650" y="228" type="line"/>
      <point x="650" y="223" type="line"/>
      <point x="650" y="217" type="line"/>
      <point x="650" y="211" type="line"/>
      <point x="650" y="207" type="line"/>
      <point x="650" y="196" type="line"/>
      <point x="650" y="187" type="line"/>
      <point x="649" y="179" type="line"/>
      <point x="648" y="173" type="line"/>
      <point x="647" y="168" type="line"/>
      <point x="647" y="165" type="line"/>
      <point x="645" y="165" type="line"/>
      <point x="640" y="165" type="line"/>
      <point x="636" y="164" type="line"/>
      <point x="630" y="164" type="line"/>
      <point x="625" y="164" type="line"/>
      <point x="619" y="164" type="line"/>
      <point x="613" y="164" type="line"/>
      <point x="406" y="164" type="line"/>
      <point x="399" y="164" type="line"/>
    </contour>
    <contour>
      <point x="654" y="167" type="line"/>
      <point x="656" y="168" type="line"/>
      <point x="657" y="169" type="line"/>
      <point x="659" y="169" type="line"/>
      <point x="659" y="169" type="line"/>
      <point x="660" y="169" type="line"/>
      <point x="659" y="168" type="line"/>
      <point x="658" y="168" type="line"/>
      <point x="657" y="167" type="line"/>
      <point x="654" y="167" type="line"/>
      <point x="653" y="167" type="line"/>
    </contour>
    <contour>
      <point x="377" y="151" type="line"/>
      <point x="375" y="154" type="line"/>
      <point x="375" y="155" type="line"/>
      <point x="376" y="154" type="line"/>
    </contour>
    <contour>
      <point x="379" y="147" type="line"/>
      <point x="378" y="147" type="line"/>
      <point x="377" y="149" type="line"/>
      <point x="376" y="152" type="line"/>
      <point x="376" y="153" type="line"/>
      <point x="378" y="149" type="line"/>
      <point x="379" y="148" type="line"/>
    </contour>
  </outline>
</glyph>
<glyph name="C" format="1">
  <advance width="1020"/>
  <unicode hex="0043"/>
  <outline>
    <contour>
      <point x="647" y="643" type="line"/>
      <point x="646" y="645" type="line"/>
      <point x="646" y="646" type="line"/>
      <point x="645" y="647" type="line"/>
      <point x="645" y="648" type="line"/>
      <point x="646" y="647" type="line"/>
      <point x="646" y="647" type="line"/>
      <point x="647" y="646" type="line"/>
      <point x="647" y="644" type="line"/>
      <point x="648" y="641" type="line"/>
    </contour>
    <contour>
      <point x="404" y="-162" type="curve" smooth="yes"/>
      <point x="410" y="-162" type="line"/>
      <point x="617" y="-162" type="line"/>
      <point x="624" y="-162" type="line"/>
      <point x="632" y="-162" type="line"/>
      <point x="642" y="-162" type="line"/>
      <point x="652" y="-161" type="line"/>
      <point x="663" y="-161" type="line"/>
      <point x="675" y="-160" type="line"/>
      <point x="687" y="-158" type="line"/>
      <point x="700" y="-157" type="line"/>
      <point x="714" y="-154" type="line"/>
      <point x="728" y="-151" type="line"/>
      <point x="743" y="-147" type="line"/>
      <point x="758" y="-143" type="line"/>
      <point x="774" y="-137" type="line"/>
      <point x="790" y="-130" type="line"/>
      <point x="806" y="-122" type="line"/>
      <point x="823" y="-113" type="line"/>
      <point x="839" y="-102" type="line"/>
      <point x="855" y="-89" type="line" smooth="yes"/>
      <point x="858" y="-87"/>
      <point x="862" y="-84"/>
      <point x="864" y="-81" type="curve" smooth="yes"/>
      <point x="871" y="-75" type="line"/>
      <point x="886" y="-60" type="line"/>
      <point x="899" y="-43" type="line"/>
      <point x="912" y="-25" type="line"/>
      <point x="924" y="-6" type="line"/>
      <point x="934" y="14" type="line"/>
      <point x="943" y="35" type="line"/>
      <point x="950" y="56" type="line"/>
      <point x="956" y="78" type="line"/>
      <point x="961" y="100" type="line"/>
      <point x="965" y="123" type="line"/>
      <point x="968" y="146" type="line"/>
      <point x="969" y="170" type="line"/>
      <point x="970" y="195" type="line" smooth="yes"/>
      <point x="972" y="281"/>
      <point x="900" y="356"/>
      <point x="813" y="358" type="curve" smooth="yes"/>
      <point x="727" y="360"/>
      <point x="652" y="288"/>
      <point x="650" y="201" type="curve" smooth="yes"/>
      <point x="650" y="190" type="line"/>
      <point x="650" y="181" type="line"/>
      <point x="649" y="173" type="line"/>
      <point x="648" y="166" type="line"/>
      <point x="647" y="161" type="line"/>
      <point x="647" y="159" type="line"/>
      <point x="644" y="159" type="line"/>
      <point x="639" y="158" type="line"/>
      <point x="634" y="158" type="line"/>
      <point x="629" y="158" type="line"/>
      <point x="623" y="158" type="line"/>
      <point x="617" y="158" type="line"/>
      <point x="410" y="158" type="line"/>
      <point x="403" y="158" type="line"/>
      <point x="398" y="158" type="line"/>
      <point x="392" y="158" type="line"/>
      <point x="387" y="158" type="line"/>
      <point x="383" y="158" type="line"/>
      <point x="379" y="158" type="line"/>
      <point x="375" y="159" type="line"/>
      <point x="373" y="159" type="line"/>
      <point x="372" y="163" type="line"/>
      <point x="371" y="171" type="line"/>
      <point x="370" y="181" type="line"/>
      <point x="370" y="196" type="line"/>
      <point x="370" y="592" type="line"/>
      <point x="370" y="602" type="line"/>
      <point x="370" y="609" type="line"/>
      <point x="370" y="614" type="line"/>
      <point x="370" y="620" type="line"/>
      <point x="370" y="624" type="line"/>
      <point x="370" y="629" type="line"/>
      <point x="370" y="633" type="line"/>
      <point x="370" y="635" type="line"/>
      <point x="374" y="636" type="line"/>
      <point x="383" y="637" type="line"/>
      <point x="393" y="638" type="line"/>
      <point x="408" y="638" type="line"/>
      <point x="598" y="638" type="line"/>
      <point x="605" y="638" type="line"/>
      <point x="616" y="638" type="line"/>
      <point x="626" y="638" type="line"/>
      <point x="634" y="637" type="line"/>
      <point x="640" y="636" type="line"/>
      <point x="645" y="635" type="line"/>
      <point x="649" y="635" type="line"/>
      <point x="649" y="635" type="line"/>
      <point x="649" y="631" type="line"/>
      <point x="649" y="626" type="line"/>
      <point x="650" y="622" type="line"/>
      <point x="650" y="616" type="line"/>
      <point x="650" y="611" type="line"/>
      <point x="650" y="604" type="line"/>
      <point x="650" y="598" type="line" smooth="yes"/>
      <point x="650" y="511"/>
      <point x="724" y="438"/>
      <point x="810" y="438" type="curve" smooth="yes"/>
      <point x="897" y="438"/>
      <point x="970" y="512"/>
      <point x="970" y="598" type="curve" smooth="yes"/>
      <point x="970" y="605" type="line"/>
      <point x="970" y="612" type="line"/>
      <point x="970" y="621" type="line"/>
      <point x="970" y="631" type="line"/>
      <point x="969" y="641" type="line"/>
      <point x="968" y="652" type="line"/>
      <point x="967" y="664" type="line"/>
      <point x="966" y="676" type="line"/>
      <point x="964" y="689" type="line"/>
      <point x="962" y="703" type="line"/>
      <point x="958" y="717" type="line"/>
      <point x="954" y="732" type="line"/>
      <point x="950" y="748" type="line"/>
      <point x="944" y="763" type="line"/>
      <point x="937" y="779" type="line"/>
      <point x="928" y="796" type="line"/>
      <point x="919" y="812" type="line"/>
      <point x="908" y="828" type="line"/>
      <point x="895" y="844" type="line"/>
      <point x="881" y="860" type="line"/>
      <point x="866" y="874" type="line"/>
      <point x="849" y="888" type="line" smooth="yes"/>
      <point x="846" y="890"/>
      <point x="842" y="893"/>
      <point x="839" y="895" type="curve" smooth="yes"/>
      <point x="831" y="900" type="line"/>
      <point x="812" y="912" type="line"/>
      <point x="792" y="922" type="line"/>
      <point x="771" y="931" type="line"/>
      <point x="750" y="938" type="line"/>
      <point x="728" y="944" type="line"/>
      <point x="706" y="949" type="line"/>
      <point x="683" y="953" type="line"/>
      <point x="660" y="956" type="line"/>
      <point x="636" y="957" type="line"/>
      <point x="611" y="958" type="line"/>
      <point x="598" y="958" type="line"/>
      <point x="408" y="958" type="line"/>
      <point x="387" y="958" type="line"/>
      <point x="364" y="956" type="line"/>
      <point x="341" y="954" type="line"/>
      <point x="319" y="951" type="line"/>
      <point x="297" y="947" type="line"/>
      <point x="276" y="941" type="line"/>
      <point x="255" y="935" type="line"/>
      <point x="235" y="927" type="line"/>
      <point x="215" y="918" type="line"/>
      <point x="196" y="907" type="line"/>
      <point x="177" y="896" type="line" smooth="yes"/>
      <point x="175" y="894"/>
      <point x="170" y="891"/>
      <point x="168" y="889" type="curve" smooth="yes"/>
      <point x="160" y="883" type="line"/>
      <point x="144" y="869" type="line"/>
      <point x="129" y="854" type="line"/>
      <point x="116" y="838" type="line" smooth="yes"/>
      <point x="114" y="835"/>
      <point x="111" y="831"/>
      <point x="109" y="829" type="curve" smooth="yes"/>
      <point x="104" y="821" type="line"/>
      <point x="94" y="805" type="line"/>
      <point x="85" y="788" type="line"/>
      <point x="77" y="772" type="line"/>
      <point x="71" y="755" type="line"/>
      <point x="65" y="739" type="line"/>
      <point x="61" y="724" type="line"/>
      <point x="58" y="709" type="line"/>
      <point x="55" y="695" type="line"/>
      <point x="54" y="681" type="line"/>
      <point x="52" y="669" type="line"/>
      <point x="51" y="656" type="line"/>
      <point x="51" y="645" type="line"/>
      <point x="50" y="635" type="line"/>
      <point x="50" y="625" type="line"/>
      <point x="50" y="616" type="line"/>
      <point x="50" y="609" type="line"/>
      <point x="50" y="602" type="line"/>
      <point x="50" y="592" type="line"/>
      <point x="50" y="196" type="line"/>
      <point x="50" y="175" type="line"/>
      <point x="52" y="151" type="line"/>
      <point x="54" y="129" type="line"/>
      <point x="57" y="106" type="line"/>
      <point x="62" y="84" type="line"/>
      <point x="67" y="63" type="line"/>
      <point x="74" y="42" type="line"/>
      <point x="82" y="21" type="line"/>
      <point x="92" y="1" type="line"/>
      <point x="102" y="-18" type="line"/>
      <point x="115" y="-36" type="line"/>
      <point x="128" y="-53" type="line" smooth="yes"/>
      <point x="130" y="-56"/>
      <point x="133" y="-60"/>
      <point x="136" y="-63" type="curve" smooth="yes"/>
      <point x="142" y="-69" type="line"/>
      <point x="157" y="-84" type="line"/>
      <point x="173" y="-97" type="line"/>
      <point x="190" y="-109" type="line"/>
      <point x="207" y="-119" type="line"/>
      <point x="224" y="-128" type="line"/>
      <point x="240" y="-136" type="line"/>
      <point x="257" y="-142" type="line"/>
      <point x="272" y="-147" type="line"/>
      <point x="288" y="-151" type="line"/>
      <point x="303" y="-154" type="line"/>
      <point x="317" y="-157" type="line"/>
      <point x="330" y="-158" type="line"/>
      <point x="343" y="-160" type="line"/>
      <point x="355" y="-161" type="line"/>
      <point x="367" y="-161" type="line"/>
      <point x="377" y="-162" type="line"/>
      <point x="387" y="-162" type="line"/>
      <point x="396" y="-162" type="line"/>
      <point x="403" y="-162" type="line" smooth="yes"/>
      <point x="404" y="-162"/>
      <point x="404" y="-162"/>
    </contour>
    <contour>
      <point x="357" y="631" type="line"/>
      <point x="360" y="633" type="line"/>
      <point x="361" y="633" type="line"/>
      <point x="360" y="632" type="line"/>
    </contour>
    <contour>
      <point x="354" y="629" type="line"/>
      <point x="353" y="629" type="line"/>
      <point x="353" y="630" type="line"/>
      <point x="355" y="631" type="line"/>
      <point x="358" y="632" type="line"/>
      <point x="359" y="632" type="line"/>
      <point x="355" y="630" type="line"/>
    </contour>
    <contour>
      <point x="656" y="161" type="line"/>
      <point x="658" y="162" type="line"/>
      <point x="659" y="162" type="line"/>
      <point x="660" y="162" type="line"/>
      <point x="661" y="162" type="line"/>
      <point x="661" y="162" type="line"/>
      <point x="660" y="162" type="line"/>
      <point x="659" y="161" type="line"/>
      <point x="657" y="161" type="line"/>
      <point x="655" y="160" type="line"/>
    </contour>
    <contour>
      <point x="376" y="149" type="line"/>
      <point x="375" y="150" type="line"/>
      <point x="375" y="150" type="line"/>
    </contour>
    <contour>
      <point x="379" y="143" type="line"/>
      <point x="378" y="143" type="line"/>
      <point x="377" y="144" type="line"/>
      <point x="376" y="147" type="line"/>
      <point x="375" y="149" type="line"/>
      <point x="377" y="147" type="line"/>
      <point x="378" y="145" type="line"/>
      <point x="379" y="144" type="line"/>
    </contour>
  </outline>
</glyph>
<glyph name="D" format="1">
  <advance width="1020"/>
  <unicode hex="0044"/>
  <outline>
    <contour>
      <point x="210" y="-161" type="curve" smooth="yes"/>
      <point x="617" y="-161" type="line"/>
      <point x="624" y="-161" type="line"/>
      <point x="632" y="-161" type="line"/>
      <point x="642" y="-161" type="line"/>
      <point x="652" y="-160" type="line"/>
      <point x="663" y="-160" type="line"/>
      <point x="675" y="-159" type="line"/>
      <point x="687" y="-157" type="line"/>
      <point x="700" y="-156" type="line"/>
      <point x="714" y="-153" type="line"/>
      <point x="728" y="-150" type="line"/>
      <point x="743" y="-146" type="line"/>
      <point x="758" y="-142" type="line"/>
      <point x="774" y="-136" type="line"/>
      <point x="790" y="-129" type="line"/>
      <point x="806" y="-121" type="line"/>
      <point x="823" y="-112" type="line"/>
      <point x="839" y="-101" type="line"/>
      <point x="855" y="-88" type="line" smooth="yes"/>
      <point x="858" y="-86"/>
      <point x="862" y="-83"/>
      <point x="864" y="-80" type="curve" smooth="yes"/>
      <point x="871" y="-74" type="line"/>
      <point x="886" y="-59" type="line"/>
      <point x="899" y="-42" type="line"/>
      <point x="912" y="-24" type="line"/>
      <point x="924" y="-5" type="line"/>
      <point x="934" y="15" type="line"/>
      <point x="943" y="36" type="line"/>
      <point x="950" y="57" type="line"/>
      <point x="956" y="79" type="line"/>
      <point x="961" y="101" type="line"/>
      <point x="965" y="124" type="line"/>
      <point x="968" y="147" type="line"/>
      <point x="969" y="171" type="line"/>
      <point x="970" y="196" type="line"/>
      <point x="970" y="209" type="line"/>
      <point x="970" y="589" type="line" smooth="yes"/>
      <point x="970" y="591"/>
      <point x="970" y="593"/>
      <point x="970" y="594" type="curve"/>
      <point x="970" y="595"/>
      <point x="970" y="597"/>
      <point x="970" y="599" type="curve" smooth="yes"/>
      <point x="970" y="606" type="line"/>
      <point x="970" y="613" type="line"/>
      <point x="970" y="622" type="line"/>
      <point x="970" y="632" type="line"/>
      <point x="969" y="642" type="line"/>
      <point x="968" y="653" type="line"/>
      <point x="967" y="665" type="line"/>
      <point x="966" y="677" type="line"/>
      <point x="964" y="690" type="line"/>
      <point x="962" y="704" type="line"/>
      <point x="958" y="718" type="line"/>
      <point x="954" y="733" type="line"/>
      <point x="950" y="749" type="line"/>
      <point x="944" y="764" type="line"/>
      <point x="937" y="780" type="line"/>
      <point x="928" y="797" type="line"/>
      <point x="919" y="813" type="line"/>
      <point x="908" y="829" type="line"/>
      <point x="895" y="845" type="line"/>
      <point x="881" y="861" type="line"/>
      <point x="866" y="875" type="line"/>
      <point x="849" y="889" type="line" smooth="yes"/>
      <point x="846" y="891"/>
      <point x="842" y="894"/>
      <point x="839" y="896" type="curve" smooth="yes"/>
      <point x="831" y="901" type="line"/>
      <point x="812" y="913" type="line"/>
      <point x="792" y="923" type="line"/>
      <point x="771" y="932" type="line"/>
      <point x="750" y="939" type="line"/>
      <point x="728" y="945" type="line"/>
      <point x="706" y="950" type="line"/>
      <point x="683" y="954" type="line"/>
      <point x="660" y="957" type="line"/>
      <point x="636" y="958" type="line"/>
      <point x="611" y="959" type="line"/>
      <point x="603" y="959" type="line"/>
      <point x="210" y="959" type="line" smooth="yes"/>
      <point x="122" y="959"/>
      <point x="50" y="887"/>
      <point x="50" y="799" type="curve"/>
      <point x="50" y="-1" type="line"/>
      <point x="50" y="-89"/>
      <point x="122" y="-161"/>
    </contour>
    <contour>
      <point x="647" y="644" type="line"/>
      <point x="646" y="646" type="line"/>
      <point x="646" y="647" type="line"/>
      <point x="645" y="648" type="line"/>
      <point x="645" y="649" type="line"/>
      <point x="646" y="648" type="line"/>
      <point x="646" y="648" type="line"/>
      <point x="647" y="647" type="line"/>
      <point x="647" y="645" type="line"/>
      <point x="648" y="642" type="line"/>
    </contour>
    <contour>
      <point x="603" y="639" type="line"/>
      <point x="605" y="639" type="line"/>
      <point x="616" y="639" type="line"/>
      <point x="626" y="639" type="line"/>
      <point x="634" y="638" type="line"/>
      <point x="640" y="637" type="line"/>
      <point x="645" y="636" type="line"/>
      <point x="649" y="636" type="line"/>
      <point x="649" y="636" type="line"/>
      <point x="649" y="632" type="line"/>
      <point x="649" y="627" type="line"/>
      <point x="650" y="623" type="line"/>
      <point x="650" y="617" type="line"/>
      <point x="650" y="612" type="line"/>
      <point x="650" y="605" type="line"/>
      <point x="650" y="599" type="line" smooth="yes"/>
      <point x="650" y="597"/>
      <point x="650" y="595"/>
      <point x="650" y="594" type="curve"/>
      <point x="650" y="589" type="line" smooth="yes"/>
      <point x="650" y="209" type="line"/>
      <point x="650" y="202" type="line"/>
      <point x="650" y="191" type="line"/>
      <point x="650" y="182" type="line"/>
      <point x="649" y="174" type="line"/>
      <point x="648" y="167" type="line"/>
      <point x="647" y="162" type="line"/>
      <point x="647" y="160" type="line"/>
      <point x="644" y="160" type="line"/>
      <point x="639" y="159" type="line"/>
      <point x="634" y="159" type="line"/>
      <point x="629" y="159" type="line"/>
      <point x="623" y="159" type="line"/>
      <point x="617" y="159" type="line"/>
      <point x="370" y="159" type="line"/>
      <point x="370" y="639" type="line"/>
    </contour>
    <contour>
      <point x="656" y="162" type="line"/>
      <point x="658" y="163" type="line"/>
      <point x="659" y="163" type="line"/>
      <point x="660" y="163" type="line"/>
      <point x="661" y="163" type="line"/>
      <point x="661" y="163" type="line"/>
      <point x="660" y="163" type="line"/>
      <point x="659" y="162" type="line"/>
      <point x="657" y="162" type="line"/>
      <point x="655" y="161" type="line"/>
    </contour>
  </outline>
</glyph>
<glyph name="F" format="1">
  <advance width="1019"/>
  <unicode hex="0046"/>
  <outline>
    <contour>
      <point x="641" y="652" type="line"/>
      <point x="640" y="653" type="line"/>
      <point x="640" y="654" type="line"/>
      <point x="641" y="654" type="line"/>
      <point x="642" y="653" type="line"/>
      <point x="643" y="651" type="line"/>
      <point x="644" y="648" type="line"/>
    </contour>
    <contour>
      <point x="643" y="648" type="line"/>
      <point x="642" y="650" type="line"/>
      <point x="644" y="648" type="line"/>
      <point x="644" y="647" type="line"/>
      <point x="644" y="647" type="line"/>
    </contour>
    <contour>
      <point x="604" y="560" type="curve" smooth="yes"/>
      <point x="598" y="560" type="line"/>
      <point x="591" y="560" type="line"/>
      <point x="581" y="560" type="line"/>
      <point x="571" y="560" type="line"/>
      <point x="560" y="560" type="line"/>
      <point x="547" y="561" type="line"/>
      <point x="534" y="561" type="line"/>
      <point x="521" y="561" type="line"/>
      <point x="507" y="561" type="line"/>
      <point x="493" y="561" type="line"/>
      <point x="479" y="561" type="line"/>
      <point x="465" y="561" type="line"/>
      <point x="452" y="562" type="line"/>
      <point x="439" y="562" type="line"/>
      <point x="426" y="562" type="line"/>
      <point x="415" y="562" type="line"/>
      <point x="405" y="562" type="line"/>
      <point x="396" y="562" type="line"/>
      <point x="388" y="563" type="line"/>
      <point x="384" y="563" type="line"/>
      <point x="379" y="563" type="line"/>
      <point x="375" y="563" type="line"/>
      <point x="372" y="563" type="line"/>
      <point x="372" y="566" type="line"/>
      <point x="371" y="574" type="line"/>
      <point x="370" y="584" type="line"/>
      <point x="370" y="598" type="line"/>
      <point x="370" y="605" type="line"/>
      <point x="370" y="610" type="line"/>
      <point x="370" y="616" type="line"/>
      <point x="370" y="621" type="line"/>
      <point x="370" y="625" type="line"/>
      <point x="370" y="630" type="line"/>
      <point x="371" y="633" type="line"/>
      <point x="371" y="636" type="line"/>
      <point x="371" y="637" type="line"/>
      <point x="375" y="638" type="line"/>
      <point x="383" y="639" type="line"/>
      <point x="393" y="640" type="line"/>
      <point x="408" y="640" type="line"/>
      <point x="607" y="640" type="line"/>
      <point x="614" y="640" type="line"/>
      <point x="619" y="640" type="line"/>
      <point x="625" y="640" type="line"/>
      <point x="630" y="640" type="line"/>
      <point x="634" y="640" type="line"/>
      <point x="639" y="640" type="line"/>
      <point x="642" y="639" type="line"/>
      <point x="645" y="639" type="line"/>
      <point x="646" y="639" type="line"/>
      <point x="647" y="635" type="line"/>
      <point x="648" y="627" type="line"/>
      <point x="649" y="617" type="line"/>
      <point x="649" y="599" type="line" smooth="yes"/>
      <point x="649" y="583"/>
      <point x="652" y="567"/>
      <point x="657" y="552" type="curve"/>
      <point x="641" y="557"/>
      <point x="624" y="560"/>
    </contour>
    <contour>
      <point x="360" y="633" type="line"/>
      <point x="362" y="635" type="line"/>
      <point x="363" y="635" type="line"/>
      <point x="363" y="635" type="line"/>
      <point x="362" y="634" type="line"/>
    </contour>
    <contour>
      <point x="356" y="631" type="line"/>
      <point x="356" y="632" type="line"/>
      <point x="357" y="633" type="line"/>
      <point x="359" y="634" type="line"/>
      <point x="362" y="635" type="line"/>
      <point x="358" y="632" type="line"/>
      <point x="357" y="631" type="line"/>
    </contour>
    <contour>
      <point x="370" y="-1" type="curve" smooth="yes"/>
      <point x="371" y="187" type="line"/>
      <point x="371" y="195" type="line"/>
      <point x="371" y="206" type="line"/>
      <point x="371" y="215" type="line"/>
      <point x="372" y="223" type="line"/>
      <point x="373" y="229" type="line"/>
      <point x="374" y="234" type="line"/>
      <point x="374" y="237" type="line"/>
      <point x="374" y="237" type="line"/>
      <point x="377" y="237" type="line"/>
      <point x="382" y="237" type="line"/>
      <point x="388" y="237" type="line"/>
      <point x="395" y="238" type="line"/>
      <point x="405" y="238" type="line"/>
      <point x="415" y="238" type="line"/>
      <point x="426" y="238" type="line"/>
      <point x="439" y="238" type="line"/>
      <point x="452" y="238" type="line"/>
      <point x="465" y="239" type="line"/>
      <point x="479" y="239" type="line"/>
      <point x="493" y="239" type="line"/>
      <point x="507" y="239" type="line"/>
      <point x="521" y="239" type="line"/>
      <point x="534" y="239" type="line"/>
      <point x="547" y="239" type="line"/>
      <point x="560" y="240" type="line"/>
      <point x="571" y="240" type="line"/>
      <point x="581" y="240" type="line"/>
      <point x="590" y="240" type="line"/>
      <point x="600" y="240" type="line"/>
      <point x="606" y="240" type="line" smooth="yes"/>
      <point x="734" y="243"/>
      <point x="784" y="360"/>
      <point x="755" y="452" type="curve"/>
      <point x="773" y="445"/>
      <point x="792" y="442"/>
      <point x="812" y="442" type="curve" smooth="yes"/>
      <point x="899" y="444"/>
      <point x="971" y="519"/>
      <point x="969" y="605" type="curve" smooth="yes"/>
      <point x="969" y="623" type="line"/>
      <point x="967" y="647" type="line"/>
      <point x="965" y="670" type="line"/>
      <point x="962" y="692" type="line"/>
      <point x="957" y="714" type="line"/>
      <point x="951" y="736" type="line"/>
      <point x="944" y="757" type="line"/>
      <point x="936" y="778" type="line"/>
      <point x="927" y="798" type="line"/>
      <point x="916" y="817" type="line"/>
      <point x="903" y="835" type="line" smooth="yes"/>
      <point x="902" y="838"/>
      <point x="898" y="842"/>
      <point x="896" y="845" type="curve" smooth="yes"/>
      <point x="890" y="852" type="line"/>
      <point x="875" y="868" type="line"/>
      <point x="860" y="883" type="line" smooth="yes"/>
      <point x="858" y="885"/>
      <point x="854" y="888"/>
      <point x="851" y="890" type="curve" smooth="yes"/>
      <point x="844" y="896" type="line"/>
      <point x="827" y="908" type="line"/>
      <point x="811" y="918" type="line"/>
      <point x="794" y="926" type="line"/>
      <point x="777" y="934" type="line"/>
      <point x="761" y="940" type="line"/>
      <point x="745" y="945" type="line"/>
      <point x="729" y="949" type="line"/>
      <point x="714" y="952" type="line"/>
      <point x="700" y="955" type="line"/>
      <point x="687" y="957" type="line"/>
      <point x="674" y="958" type="line"/>
      <point x="662" y="959" type="line"/>
      <point x="650" y="959" type="line"/>
      <point x="640" y="960" type="line"/>
      <point x="630" y="960" type="line"/>
      <point x="621" y="960" type="line"/>
      <point x="614" y="960" type="line"/>
      <point x="607" y="960" type="line"/>
      <point x="408" y="960" type="line"/>
      <point x="387" y="960" type="line"/>
      <point x="363" y="958" type="line"/>
      <point x="340" y="956" type="line"/>
      <point x="318" y="953" type="line"/>
      <point x="296" y="948" type="line"/>
      <point x="274" y="942" type="line"/>
      <point x="253" y="935" type="line"/>
      <point x="232" y="927" type="line"/>
      <point x="212" y="918" type="line"/>
      <point x="193" y="907" type="line"/>
      <point x="175" y="894" type="line" smooth="yes"/>
      <point x="172" y="893"/>
      <point x="168" y="889"/>
      <point x="165" y="887" type="curve" smooth="yes"/>
      <point x="158" y="881" type="line"/>
      <point x="142" y="866" type="line"/>
      <point x="127" y="851" type="line" smooth="yes"/>
      <point x="125" y="849"/>
      <point x="122" y="845"/>
      <point x="120" y="842" type="curve" smooth="yes"/>
      <point x="114" y="835" type="line"/>
      <point x="102" y="818" type="line"/>
      <point x="92" y="802" type="line"/>
      <point x="84" y="785" type="line"/>
      <point x="76" y="768" type="line"/>
      <point x="70" y="752" type="line"/>
      <point x="65" y="736" type="line"/>
      <point x="61" y="720" type="line"/>
      <point x="58" y="705" type="line"/>
      <point x="55" y="691" type="line"/>
      <point x="53" y="678" type="line"/>
      <point x="52" y="665" type="line"/>
      <point x="51" y="653" type="line"/>
      <point x="51" y="641" type="line"/>
      <point x="50" y="631" type="line"/>
      <point x="50" y="621" type="line"/>
      <point x="50" y="612" type="line"/>
      <point x="50" y="605" type="line"/>
      <point x="50" y="598" type="line"/>
      <point x="50" y="578" type="line"/>
      <point x="52" y="556" type="line"/>
      <point x="54" y="534" type="line"/>
      <point x="57" y="512" type="line"/>
      <point x="61" y="491" type="line"/>
      <point x="66" y="471" type="line"/>
      <point x="72" y="451" type="line"/>
      <point x="79" y="431" type="line"/>
      <point x="87" y="412" type="line"/>
      <point x="95" y="397" type="line"/>
      <point x="92" y="393" type="line"/>
      <point x="83" y="373" type="line"/>
      <point x="75" y="354" type="line"/>
      <point x="69" y="333" type="line"/>
      <point x="63" y="312" type="line"/>
      <point x="59" y="291" type="line"/>
      <point x="55" y="269" type="line"/>
      <point x="53" y="247" type="line"/>
      <point x="52" y="224" type="line"/>
      <point x="51" y="201" type="line"/>
      <point x="51" y="189" type="line"/>
      <point x="50" y="1" type="line" smooth="yes"/>
      <point x="50" y="-86"/>
      <point x="123" y="-160"/>
      <point x="209" y="-160" type="curve" smooth="yes"/>
      <point x="296" y="-160"/>
      <point x="370" y="-87"/>
    </contour>
    <contour>
      <point x="359" y="234" type="line"/>
      <point x="359" y="234" type="line"/>
      <point x="360" y="234" type="line"/>
      <point x="361" y="235" type="line"/>
      <point x="362" y="235" type="line"/>
      <point x="365" y="236" type="line"/>
      <point x="365" y="236" type="line"/>
      <point x="364" y="235" type="line"/>
      <point x="363" y="234" type="line"/>
      <point x="361" y="234" type="line"/>
      <point x="360" y="234" type="line"/>
    </contour>
  </outline>
</glyph>
<glyph name="H" format="1">
  <advance width="1020"/>
  <unicode hex="0048"/>
  <outline>
    <contour>
      <point x="810" y="-164" type="curve" smooth="yes"/>
      <point x="896" y="-164"/>
      <point x="970" y="-90"/>
      <point x="970" y="-4" type="curve" smooth="yes"/>
      <point x="970" y="786" type="line" smooth="yes"/>
      <point x="970" y="874"/>
      <point x="898" y="946"/>
      <point x="810" y="946" type="curve" smooth="yes"/>
      <point x="810" y="946" type="line" smooth="yes"/>
      <point x="724" y="946"/>
      <point x="652" y="876"/>
      <point x="650" y="790" type="curve" smooth="yes"/>
      <point x="645" y="600" type="line"/>
      <point x="645" y="593" type="line"/>
      <point x="645" y="586" type="line"/>
      <point x="645" y="579" type="line"/>
      <point x="644" y="572" type="line"/>
      <point x="644" y="566" type="line"/>
      <point x="644" y="561" type="line"/>
      <point x="644" y="558" type="line"/>
      <point x="641" y="558" type="line"/>
      <point x="635" y="557" type="line"/>
      <point x="627" y="556" type="line"/>
      <point x="618" y="556" type="line"/>
      <point x="607" y="556" type="line"/>
      <point x="600" y="556" type="line"/>
      <point x="410" y="556" type="line"/>
      <point x="389" y="556" type="line"/>
      <point x="370" y="555" type="line"/>
      <point x="370" y="796" type="line" smooth="yes"/>
      <point x="370" y="882"/>
      <point x="296" y="956"/>
      <point x="210" y="956" type="curve" smooth="yes"/>
      <point x="124" y="956"/>
      <point x="50" y="882"/>
      <point x="50" y="796" type="curve" smooth="yes"/>
      <point x="50" y="6" type="line" smooth="yes"/>
      <point x="50" y="-82"/>
      <point x="122" y="-154"/>
      <point x="210" y="-154" type="curve" smooth="yes"/>
      <point x="210" y="-154" type="line" smooth="yes"/>
      <point x="296" y="-154"/>
      <point x="367" y="-85"/>
      <point x="370" y="0" type="curve" smooth="yes"/>
      <point x="377" y="180" type="line"/>
      <point x="377" y="192" type="line"/>
      <point x="377" y="200" type="line"/>
      <point x="377" y="207" type="line"/>
      <point x="377" y="213" type="line"/>
      <point x="377" y="219" type="line"/>
      <point x="378" y="224" type="line"/>
      <point x="378" y="229" type="line"/>
      <point x="378" y="233" type="line"/>
      <point x="378" y="234" type="line"/>
      <point x="386" y="235" type="line"/>
      <point x="395" y="236" type="line"/>
      <point x="410" y="236" type="line"/>
      <point x="600" y="236" type="line"/>
      <point x="613" y="236" type="line"/>
      <point x="638" y="237" type="line"/>
      <point x="650" y="238" type="line"/>
      <point x="650" y="-4" type="line" smooth="yes"/>
      <point x="650" y="-90"/>
      <point x="724" y="-164"/>
    </contour>
    <contour>
      <point x="640" y="541" type="line"/>
      <point x="640" y="542" type="line"/>
      <point x="640" y="543" type="line"/>
      <point x="641" y="544" type="line"/>
      <point x="642" y="547" type="line"/>
      <point x="642" y="547" type="line"/>
      <point x="642" y="546" type="line"/>
      <point x="641" y="543" type="line"/>
      <point x="641" y="542" type="line"/>
      <point x="641" y="541" type="line"/>
    </contour>
  </outline>
</glyph>
<glyph name="J" format="1">
  <advance width="1020"/>
  <unicode hex="004A"/>
  <outline>
    <contour>
      <point x="367" y="628" type="line"/>
      <point x="366" y="628" type="line"/>
      <point x="365" y="628" type="line"/>
      <point x="363" y="629" type="line"/>
      <point x="361" y="630" type="line"/>
      <point x="362" y="629" type="line"/>
      <point x="365" y="629" type="line"/>
      <point x="366" y="628" type="line"/>
      <point x="367" y="628" type="line"/>
    </contour>
    <contour>
      <point x="210" y="-161" type="curve" smooth="yes"/>
      <point x="300" y="-161" type="line"/>
      <point x="313" y="-161" type="line"/>
      <point x="338" y="-160" type="line"/>
      <point x="361" y="-159" type="line"/>
      <point x="385" y="-156" type="line"/>
      <point x="408" y="-152" type="line"/>
      <point x="430" y="-147" type="line"/>
      <point x="452" y="-141" type="line"/>
      <point x="473" y="-134" type="line"/>
      <point x="494" y="-125" type="line"/>
      <point x="514" y="-115" type="line"/>
      <point x="533" y="-104" type="line"/>
      <point x="541" y="-98" type="line" smooth="yes"/>
      <point x="544" y="-96"/>
      <point x="548" y="-93"/>
      <point x="551" y="-91" type="curve" smooth="yes"/>
      <point x="567" y="-77" type="line"/>
      <point x="583" y="-63" type="line"/>
      <point x="597" y="-47" type="line"/>
      <point x="609" y="-31" type="line"/>
      <point x="620" y="-15" type="line"/>
      <point x="630" y="2" type="line"/>
      <point x="638" y="18" type="line"/>
      <point x="645" y="34" type="line"/>
      <point x="651" y="50" type="line"/>
      <point x="655" y="65" type="line"/>
      <point x="659" y="80" type="line"/>
      <point x="662" y="95" type="line"/>
      <point x="665" y="108" type="line"/>
      <point x="666" y="121" type="line"/>
      <point x="668" y="134" type="line"/>
      <point x="669" y="145" type="line"/>
      <point x="669" y="156" type="line"/>
      <point x="670" y="166" type="line"/>
      <point x="670" y="176" type="line"/>
      <point x="670" y="184" type="line"/>
      <point x="670" y="191" type="line"/>
      <point x="670" y="198" type="line"/>
      <point x="670" y="590" type="line"/>
      <point x="670" y="603" type="line"/>
      <point x="669" y="629" type="line"/>
      <point x="669" y="639" type="line"/>
      <point x="810" y="639" type="line" smooth="yes"/>
      <point x="896" y="639"/>
      <point x="970" y="713"/>
      <point x="970" y="799" type="curve" smooth="yes"/>
      <point x="970" y="885"/>
      <point x="896" y="959"/>
      <point x="810" y="959" type="curve" smooth="yes"/>
      <point x="220" y="959" type="line" smooth="yes"/>
      <point x="132" y="959"/>
      <point x="60" y="887"/>
      <point x="60" y="799" type="curve"/>
      <point x="60" y="798" type="line"/>
      <point x="60" y="715"/>
      <point x="127" y="644"/>
      <point x="210" y="639" type="curve" smooth="yes"/>
      <point x="300" y="633" type="line"/>
      <point x="309" y="633" type="line"/>
      <point x="318" y="633" type="line"/>
      <point x="326" y="632" type="line"/>
      <point x="333" y="632" type="line"/>
      <point x="340" y="632" type="line"/>
      <point x="345" y="631" type="line"/>
      <point x="348" y="631" type="line"/>
      <point x="349" y="625" type="line"/>
      <point x="350" y="618" type="line"/>
      <point x="350" y="608" type="line"/>
      <point x="350" y="597" type="line"/>
      <point x="350" y="590" type="line"/>
      <point x="350" y="198" type="line"/>
      <point x="350" y="191" type="line"/>
      <point x="350" y="185" type="line"/>
      <point x="350" y="179" type="line"/>
      <point x="350" y="174" type="line"/>
      <point x="350" y="169" type="line"/>
      <point x="349" y="164" type="line"/>
      <point x="349" y="162" type="line"/>
      <point x="347" y="162" type="line"/>
      <point x="342" y="161" type="line"/>
      <point x="336" y="160" type="line"/>
      <point x="328" y="159" type="line"/>
      <point x="318" y="159" type="line"/>
      <point x="307" y="159" type="line"/>
      <point x="300" y="159" type="line"/>
      <point x="210" y="159" type="line" smooth="yes"/>
      <point x="124" y="159"/>
      <point x="50" y="85"/>
      <point x="50" y="-1" type="curve" smooth="yes"/>
      <point x="50" y="-87"/>
      <point x="124" y="-161"/>
    </contour>
    <contour>
      <point x="346" y="148" type="line"/>
      <point x="346" y="148" type="line"/>
      <point x="346" y="148" type="line"/>
      <point x="346" y="149" type="line"/>
      <point x="347" y="151" type="line"/>
      <point x="347" y="153" type="line"/>
      <point x="348" y="154" type="line"/>
      <point x="348" y="154" type="line"/>
      <point x="347" y="151" type="line"/>
      <point x="347" y="149" type="line"/>
      <point x="346" y="148" type="line"/>
    </contour>
  </outline>
</glyph>
<glyph name="M" format="1">
  <advance width="1020"/>
  <unicode hex="004D"/>
  <outline>
    <contour>
      <point x="810" y="-161" type="curve" smooth="yes"/>
      <point x="896" y="-161"/>
      <point x="970" y="-87"/>
      <point x="970" y="-1" type="curve" smooth="yes"/>
      <point x="970" y="799" type="line" smooth="yes"/>
      <point x="970" y="887"/>
      <point x="898" y="959"/>
      <point x="810" y="959" type="curve" smooth="yes"/>
      <point x="703" y="959" type="line"/>
      <point x="696" y="959" type="line"/>
      <point x="687" y="959" type="line"/>
      <point x="677" y="959" type="line"/>
      <point x="667" y="958" type="line"/>
      <point x="656" y="958" type="line"/>
      <point x="644" y="956" type="line"/>
      <point x="631" y="955" type="line"/>
      <point x="617" y="953" type="line"/>
      <point x="603" y="950" type="line"/>
      <point x="588" y="947" type="line"/>
      <point x="573" y="942" type="line"/>
      <point x="557" y="937" type="line"/>
      <point x="541" y="930" type="line"/>
      <point x="524" y="922" type="line"/>
      <point x="510" y="914" type="line"/>
      <point x="505" y="917" type="line"/>
      <point x="488" y="926" type="line"/>
      <point x="471" y="933" type="line"/>
      <point x="455" y="940" type="line"/>
      <point x="439" y="945" type="line"/>
      <point x="423" y="949" type="line"/>
      <point x="408" y="952" type="line"/>
      <point x="394" y="954" type="line"/>
      <point x="381" y="956" type="line"/>
      <point x="368" y="957" type="line"/>
      <point x="356" y="958" type="line"/>
      <point x="345" y="959" type="line"/>
      <point x="335" y="959" type="line"/>
      <point x="326" y="959" type="line"/>
      <point x="317" y="959" type="line"/>
      <point x="220" y="959" type="line"/>
      <point x="210" y="959" type="line" smooth="yes"/>
      <point x="122" y="959"/>
      <point x="50" y="887"/>
      <point x="50" y="799" type="curve"/>
      <point x="50" y="-1" type="line" smooth="yes"/>
      <point x="50" y="-87"/>
      <point x="124" y="-161"/>
      <point x="210" y="-161" type="curve" smooth="yes"/>
      <point x="296" y="-161"/>
      <point x="370" y="-87"/>
      <point x="370" y="-1" type="curve" smooth="yes"/>
      <point x="370" y="232" type="line"/>
      <point x="397" y="182"/>
      <point x="450" y="149"/>
      <point x="510" y="149" type="curve" smooth="yes"/>
      <point x="510" y="149" type="line" smooth="yes"/>
      <point x="570" y="149"/>
      <point x="623" y="182"/>
      <point x="650" y="232" type="curve"/>
      <point x="650" y="-1" type="line" smooth="yes"/>
      <point x="650" y="-87"/>
      <point x="724" y="-161"/>
    </contour>
  </outline>
</glyph>
<glyph name="Q" format="1">
  <advance width="1021"/>
  <unicode hex="0051"/>
  <outline>
    <contour>
      <point x="648" y="644" type="line"/>
      <point x="647" y="646" type="line"/>
      <point x="647" y="647" type="line"/>
      <point x="646" y="648" type="line"/>
      <point x="646" y="649" type="line"/>
      <point x="647" y="648" type="line"/>
      <point x="647" y="648" type="line"/>
      <point x="648" y="647" type="line"/>
      <point x="648" y="645" type="line"/>
      <point x="649" y="642" type="line"/>
    </contour>
    <contour>
      <point x="361" y="633" type="line"/>
      <point x="362" y="634" type="line"/>
      <point x="362" y="634" type="line"/>
    </contour>
    <contour>
      <point x="355" y="630" type="line"/>
      <point x="355" y="631" type="line"/>
      <point x="356" y="632" type="line"/>
      <point x="359" y="633" type="line"/>
      <point x="361" y="634" type="line"/>
      <point x="359" y="632" type="line"/>
      <point x="357" y="631" type="line"/>
      <point x="356" y="630" type="line"/>
    </contour>
    <contour>
      <point x="410" y="159" type="line"/>
      <point x="404" y="159" type="line"/>
      <point x="398" y="159" type="line"/>
      <point x="393" y="159" type="line"/>
      <point x="388" y="159" type="line"/>
      <point x="384" y="159" type="line"/>
      <point x="380" y="159" type="line"/>
      <point x="376" y="160" type="line"/>
      <point x="373" y="160" type="line"/>
      <point x="373" y="160" type="line"/>
      <point x="372" y="166" type="line"/>
      <point x="371" y="174" type="line"/>
      <point x="370" y="184" type="line"/>
      <point x="370" y="199" type="line"/>
      <point x="370" y="589" type="line"/>
      <point x="370" y="599" type="line"/>
      <point x="370" y="606" type="line"/>
      <point x="370" y="611" type="line"/>
      <point x="370" y="617" type="line"/>
      <point x="370" y="622" type="line"/>
      <point x="370" y="626" type="line"/>
      <point x="370" y="630" type="line"/>
      <point x="371" y="634" type="line"/>
      <point x="371" y="636" type="line"/>
      <point x="375" y="637" type="line"/>
      <point x="383" y="638" type="line"/>
      <point x="393" y="639" type="line"/>
      <point x="408" y="639" type="line"/>
      <point x="599" y="639" type="line"/>
      <point x="606" y="639" type="line"/>
      <point x="617" y="639" type="line"/>
      <point x="627" y="639" type="line"/>
      <point x="635" y="638" type="line"/>
      <point x="641" y="637" type="line"/>
      <point x="646" y="636" type="line"/>
      <point x="650" y="636" type="line"/>
      <point x="650" y="636" type="line"/>
      <point x="650" y="632" type="line"/>
      <point x="650" y="627" type="line"/>
      <point x="651" y="623" type="line"/>
      <point x="651" y="617" type="line"/>
      <point x="651" y="612" type="line"/>
      <point x="651" y="605" type="line"/>
      <point x="651" y="599" type="line"/>
      <point x="651" y="335" type="line"/>
      <point x="639" y="331" type="line"/>
      <point x="622" y="323" type="line"/>
      <point x="606" y="314" type="line"/>
      <point x="589" y="304" type="line"/>
      <point x="573" y="292" type="line"/>
      <point x="566" y="286" type="line" smooth="yes"/>
      <point x="563" y="284"/>
      <point x="559" y="281"/>
      <point x="557" y="278" type="curve" smooth="yes"/>
      <point x="542" y="264" type="line"/>
      <point x="528" y="248" type="line"/>
      <point x="515" y="230" type="line"/>
      <point x="503" y="212" type="line"/>
      <point x="492" y="193" type="line"/>
      <point x="483" y="173" type="line"/>
      <point x="477" y="159" type="line"/>
    </contour>
    <contour>
      <point x="379" y="145" type="line"/>
      <point x="378" y="146" type="line"/>
      <point x="377" y="147" type="line"/>
      <point x="376" y="150" type="line"/>
      <point x="375" y="153" type="line"/>
      <point x="376" y="151" type="line"/>
      <point x="378" y="149" type="line"/>
      <point x="378" y="147" type="line"/>
      <point x="379" y="146" type="line"/>
    </contour>
    <contour>
      <point x="777" y="48" type="line"/>
      <point x="778" y="51" type="line"/>
      <point x="779" y="52" type="line"/>
      <point x="780" y="53" type="line"/>
      <point x="780" y="52" type="line"/>
      <point x="779" y="51" type="line"/>
      <point x="779" y="49" type="line"/>
      <point x="777" y="47" type="line"/>
      <point x="776" y="45" type="line"/>
    </contour>
    <contour>
      <point x="601" y="-161" type="line" smooth="yes"/>
      <point x="603" y="-161"/>
      <point x="604" y="-161"/>
      <point x="606" y="-161" type="curve"/>
      <point x="608" y="-161" type="line" smooth="yes"/>
      <point x="694" y="-163"/>
      <point x="769" y="-91"/>
      <point x="771" y="-4" type="curve" smooth="yes"/>
      <point x="771" y="14" type="line"/>
      <point x="772" y="24" type="line"/>
      <point x="773" y="32" type="line"/>
      <point x="774" y="38" type="line"/>
      <point x="774" y="38" type="line"/>
      <point x="777" y="38" type="line"/>
      <point x="781" y="39" type="line"/>
      <point x="785" y="39" type="line"/>
      <point x="789" y="39" type="line"/>
      <point x="794" y="39" type="line"/>
      <point x="799" y="39" type="line"/>
      <point x="805" y="39" type="line"/>
      <point x="811" y="39" type="line" smooth="yes"/>
      <point x="899" y="39"/>
      <point x="971" y="111"/>
      <point x="971" y="199" type="curve" smooth="yes"/>
      <point x="971" y="599" type="line"/>
      <point x="971" y="606" type="line"/>
      <point x="971" y="613" type="line"/>
      <point x="971" y="622" type="line"/>
      <point x="971" y="632" type="line"/>
      <point x="970" y="642" type="line"/>
      <point x="969" y="653" type="line"/>
      <point x="968" y="665" type="line"/>
      <point x="967" y="677" type="line"/>
      <point x="965" y="690" type="line"/>
      <point x="963" y="704" type="line"/>
      <point x="959" y="718" type="line"/>
      <point x="955" y="733" type="line"/>
      <point x="951" y="749" type="line"/>
      <point x="945" y="764" type="line"/>
      <point x="938" y="780" type="line"/>
      <point x="929" y="797" type="line"/>
      <point x="920" y="813" type="line"/>
      <point x="909" y="829" type="line"/>
      <point x="896" y="845" type="line"/>
      <point x="882" y="861" type="line"/>
      <point x="867" y="875" type="line"/>
      <point x="850" y="889" type="line" smooth="yes"/>
      <point x="847" y="891"/>
      <point x="843" y="894"/>
      <point x="840" y="896" type="curve" smooth="yes"/>
      <point x="832" y="901" type="line"/>
      <point x="813" y="913" type="line"/>
      <point x="793" y="923" type="line"/>
      <point x="772" y="932" type="line"/>
      <point x="751" y="939" type="line"/>
      <point x="729" y="945" type="line"/>
      <point x="707" y="950" type="line"/>
      <point x="684" y="954" type="line"/>
      <point x="661" y="957" type="line"/>
      <point x="637" y="958" type="line"/>
      <point x="612" y="959" type="line"/>
      <point x="599" y="959" type="line"/>
      <point x="408" y="959" type="line"/>
      <point x="387" y="959" type="line"/>
      <point x="363" y="957" type="line"/>
      <point x="341" y="955" type="line"/>
      <point x="318" y="952" type="line"/>
      <point x="296" y="947" type="line"/>
      <point x="275" y="942" type="line"/>
      <point x="254" y="935" type="line"/>
      <point x="233" y="927" type="line"/>
      <point x="213" y="917" type="line"/>
      <point x="194" y="907" type="line"/>
      <point x="176" y="894" type="line"/>
      <point x="159" y="881" type="line" smooth="yes"/>
      <point x="156" y="879"/>
      <point x="152" y="876"/>
      <point x="149" y="873" type="curve" smooth="yes"/>
      <point x="143" y="867" type="line"/>
      <point x="128" y="852" type="line"/>
      <point x="115" y="836" type="line"/>
      <point x="103" y="819" type="line"/>
      <point x="93" y="802" type="line"/>
      <point x="84" y="785" type="line"/>
      <point x="76" y="769" type="line"/>
      <point x="70" y="752" type="line"/>
      <point x="65" y="737" type="line"/>
      <point x="61" y="721" type="line"/>
      <point x="58" y="706" type="line"/>
      <point x="55" y="692" type="line"/>
      <point x="54" y="679" type="line"/>
      <point x="52" y="666" type="line"/>
      <point x="51" y="654" type="line"/>
      <point x="51" y="642" type="line"/>
      <point x="50" y="632" type="line"/>
      <point x="50" y="622" type="line"/>
      <point x="50" y="613" type="line"/>
      <point x="50" y="606" type="line"/>
      <point x="50" y="599" type="line"/>
      <point x="50" y="589" type="line"/>
      <point x="50" y="199" type="line"/>
      <point x="50" y="178" type="line"/>
      <point x="52" y="155" type="line"/>
      <point x="54" y="132" type="line"/>
      <point x="57" y="109" type="line"/>
      <point x="62" y="87" type="line"/>
      <point x="67" y="66" type="line"/>
      <point x="74" y="45" type="line"/>
      <point x="82" y="25" type="line"/>
      <point x="91" y="5" type="line"/>
      <point x="102" y="-14" type="line"/>
      <point x="114" y="-32" type="line"/>
      <point x="127" y="-50" type="line"/>
      <point x="141" y="-66" type="line"/>
      <point x="156" y="-80" type="line" smooth="yes"/>
      <point x="158" y="-83"/>
      <point x="162" y="-86"/>
      <point x="165" y="-88" type="curve" smooth="yes"/>
      <point x="172" y="-94" type="line"/>
      <point x="188" y="-106" type="line"/>
      <point x="205" y="-116" type="line"/>
      <point x="221" y="-125" type="line"/>
      <point x="238" y="-133" type="line"/>
      <point x="254" y="-139" type="line"/>
      <point x="270" y="-144" type="line"/>
      <point x="285" y="-149" type="line"/>
      <point x="300" y="-152" type="line"/>
      <point x="315" y="-155" type="line"/>
      <point x="328" y="-157" type="line"/>
      <point x="341" y="-158" type="line"/>
      <point x="353" y="-159" type="line"/>
      <point x="365" y="-160" type="line"/>
      <point x="376" y="-161" type="line"/>
      <point x="386" y="-161" type="line"/>
      <point x="395" y="-161" type="line"/>
      <point x="403" y="-161" type="line"/>
      <point x="410" y="-161" type="line" smooth="yes"/>
    </contour>
  </outline>
</glyph>
